<?xml version="1.0" encoding="utf-8" standalone="no"?>
<!DOCTYPE svg PUBLIC "-//W3C//DTD SVG 1.1//EN"
  "http://www.w3.org/Graphics/SVG/1.1/DTD/svg11.dtd">
<svg xmlns:xlink="http://www.w3.org/1999/xlink" width="576pt" height="432pt" viewBox="0 0 576 432" xmlns="http://www.w3.org/2000/svg" version="1.1">
 <metadata>
  <rdf:RDF xmlns:dc="http://purl.org/dc/elements/1.1/" xmlns:cc="http://creativecommons.org/ns#" xmlns:rdf="http://www.w3.org/1999/02/22-rdf-syntax-ns#">
   <cc:Work>
    <dc:type rdf:resource="http://purl.org/dc/dcmitype/StillImage"/>
    <dc:date>2025-11-19T19:22:05.964215</dc:date>
    <dc:format>image/svg+xml</dc:format>
    <dc:creator>
     <cc:Agent>
      <dc:title>Matplotlib v3.10.5, https://matplotlib.org/</dc:title>
     </cc:Agent>
    </dc:creator>
   </cc:Work>
  </rdf:RDF>
 </metadata>
 <defs>
  <style type="text/css">*{stroke-linejoin: round; stroke-linecap: butt}</style>
 </defs>
 <g id="figure_1">
  <g id="patch_1">
   <path d="M 0 432 
L 576 432 
L 576 0 
L 0 0 
z
" style="fill: #ffffff"/>
  </g>
  <g id="axes_1">
   <g id="patch_2">
    <path d="M 33.73 404.12 
L 557.235 404.12 
L 557.235 25.44 
L 33.73 25.44 
z
" style="fill: #ffffff"/>
   </g>
   <g id="matplotlib.axis_1">
    <g id="xtick_1">
     <g id="line2d_1">
      <defs>
       <path id="mcaad2b862d" d="M 0 0 
L 0 3.5 
" style="stroke: #000000; stroke-width: 0.8"/>
      </defs>
      <g>
       <use xlink:href="#mcaad2b862d" x="33.73" y="404.12" style="stroke: #000000; stroke-width: 0.8"/>
      </g>
     </g>
     <g id="text_1">
      <!-- 0.0 -->
      <g transform="translate(25.778438 418.718437) scale(0.1 -0.1)">
       <defs>
        <path id="DejaVuSans-30" d="M 2034 4250 
Q 1547 4250 1301 3770 
Q 1056 3291 1056 2328 
Q 1056 1369 1301 889 
Q 1547 409 2034 409 
Q 2525 409 2770 889 
Q 3016 1369 3016 2328 
Q 3016 3291 2770 3770 
Q 2525 4250 2034 4250 
z
M 2034 4750 
Q 2819 4750 3233 4129 
Q 3647 3509 3647 2328 
Q 3647 1150 3233 529 
Q 2819 -91 2034 -91 
Q 1250 -91 836 529 
Q 422 1150 422 2328 
Q 422 3509 836 4129 
Q 1250 4750 2034 4750 
z
" transform="scale(0.015625)"/>
        <path id="DejaVuSans-2e" d="M 684 794 
L 1344 794 
L 1344 0 
L 684 0 
L 684 794 
z
" transform="scale(0.015625)"/>
       </defs>
       <use xlink:href="#DejaVuSans-30"/>
       <use xlink:href="#DejaVuSans-2e" transform="translate(63.623047 0)"/>
       <use xlink:href="#DejaVuSans-30" transform="translate(95.410156 0)"/>
      </g>
     </g>
    </g>
    <g id="xtick_2">
     <g id="line2d_2">
      <g>
       <use xlink:href="#mcaad2b862d" x="138.431" y="404.12" style="stroke: #000000; stroke-width: 0.8"/>
      </g>
     </g>
     <g id="text_2">
      <!-- 0.2 -->
      <g transform="translate(130.479438 418.718437) scale(0.1 -0.1)">
       <defs>
        <path id="DejaVuSans-32" d="M 1228 531 
L 3431 531 
L 3431 0 
L 469 0 
L 469 531 
Q 828 903 1448 1529 
Q 2069 2156 2228 2338 
Q 2531 2678 2651 2914 
Q 2772 3150 2772 3378 
Q 2772 3750 2511 3984 
Q 2250 4219 1831 4219 
Q 1534 4219 1204 4116 
Q 875 4013 500 3803 
L 500 4441 
Q 881 4594 1212 4672 
Q 1544 4750 1819 4750 
Q 2544 4750 2975 4387 
Q 3406 4025 3406 3419 
Q 3406 3131 3298 2873 
Q 3191 2616 2906 2266 
Q 2828 2175 2409 1742 
Q 1991 1309 1228 531 
z
" transform="scale(0.015625)"/>
       </defs>
       <use xlink:href="#DejaVuSans-30"/>
       <use xlink:href="#DejaVuSans-2e" transform="translate(63.623047 0)"/>
       <use xlink:href="#DejaVuSans-32" transform="translate(95.410156 0)"/>
      </g>
     </g>
    </g>
    <g id="xtick_3">
     <g id="line2d_3">
      <g>
       <use xlink:href="#mcaad2b862d" x="243.132" y="404.12" style="stroke: #000000; stroke-width: 0.8"/>
      </g>
     </g>
     <g id="text_3">
      <!-- 0.4 -->
      <g transform="translate(235.180438 418.718437) scale(0.1 -0.1)">
       <defs>
        <path id="DejaVuSans-34" d="M 2419 4116 
L 825 1625 
L 2419 1625 
L 2419 4116 
z
M 2253 4666 
L 3047 4666 
L 3047 1625 
L 3713 1625 
L 3713 1100 
L 3047 1100 
L 3047 0 
L 2419 0 
L 2419 1100 
L 313 1100 
L 313 1709 
L 2253 4666 
z
" transform="scale(0.015625)"/>
       </defs>
       <use xlink:href="#DejaVuSans-30"/>
       <use xlink:href="#DejaVuSans-2e" transform="translate(63.623047 0)"/>
       <use xlink:href="#DejaVuSans-34" transform="translate(95.410156 0)"/>
      </g>
     </g>
    </g>
    <g id="xtick_4">
     <g id="line2d_4">
      <g>
       <use xlink:href="#mcaad2b862d" x="347.833" y="404.12" style="stroke: #000000; stroke-width: 0.8"/>
      </g>
     </g>
     <g id="text_4">
      <!-- 0.6 -->
      <g transform="translate(339.881438 418.718437) scale(0.1 -0.1)">
       <defs>
        <path id="DejaVuSans-36" d="M 2113 2584 
Q 1688 2584 1439 2293 
Q 1191 2003 1191 1497 
Q 1191 994 1439 701 
Q 1688 409 2113 409 
Q 2538 409 2786 701 
Q 3034 994 3034 1497 
Q 3034 2003 2786 2293 
Q 2538 2584 2113 2584 
z
M 3366 4563 
L 3366 3988 
Q 3128 4100 2886 4159 
Q 2644 4219 2406 4219 
Q 1781 4219 1451 3797 
Q 1122 3375 1075 2522 
Q 1259 2794 1537 2939 
Q 1816 3084 2150 3084 
Q 2853 3084 3261 2657 
Q 3669 2231 3669 1497 
Q 3669 778 3244 343 
Q 2819 -91 2113 -91 
Q 1303 -91 875 529 
Q 447 1150 447 2328 
Q 447 3434 972 4092 
Q 1497 4750 2381 4750 
Q 2619 4750 2861 4703 
Q 3103 4656 3366 4563 
z
" transform="scale(0.015625)"/>
       </defs>
       <use xlink:href="#DejaVuSans-30"/>
       <use xlink:href="#DejaVuSans-2e" transform="translate(63.623047 0)"/>
       <use xlink:href="#DejaVuSans-36" transform="translate(95.410156 0)"/>
      </g>
     </g>
    </g>
    <g id="xtick_5">
     <g id="line2d_5">
      <g>
       <use xlink:href="#mcaad2b862d" x="452.534" y="404.12" style="stroke: #000000; stroke-width: 0.8"/>
      </g>
     </g>
     <g id="text_5">
      <!-- 0.8 -->
      <g transform="translate(444.582438 418.718437) scale(0.1 -0.1)">
       <defs>
        <path id="DejaVuSans-38" d="M 2034 2216 
Q 1584 2216 1326 1975 
Q 1069 1734 1069 1313 
Q 1069 891 1326 650 
Q 1584 409 2034 409 
Q 2484 409 2743 651 
Q 3003 894 3003 1313 
Q 3003 1734 2745 1975 
Q 2488 2216 2034 2216 
z
M 1403 2484 
Q 997 2584 770 2862 
Q 544 3141 544 3541 
Q 544 4100 942 4425 
Q 1341 4750 2034 4750 
Q 2731 4750 3128 4425 
Q 3525 4100 3525 3541 
Q 3525 3141 3298 2862 
Q 3072 2584 2669 2484 
Q 3125 2378 3379 2068 
Q 3634 1759 3634 1313 
Q 3634 634 3220 271 
Q 2806 -91 2034 -91 
Q 1263 -91 848 271 
Q 434 634 434 1313 
Q 434 1759 690 2068 
Q 947 2378 1403 2484 
z
M 1172 3481 
Q 1172 3119 1398 2916 
Q 1625 2713 2034 2713 
Q 2441 2713 2670 2916 
Q 2900 3119 2900 3481 
Q 2900 3844 2670 4047 
Q 2441 4250 2034 4250 
Q 1625 4250 1398 4047 
Q 1172 3844 1172 3481 
z
" transform="scale(0.015625)"/>
       </defs>
       <use xlink:href="#DejaVuSans-30"/>
       <use xlink:href="#DejaVuSans-2e" transform="translate(63.623047 0)"/>
       <use xlink:href="#DejaVuSans-38" transform="translate(95.410156 0)"/>
      </g>
     </g>
    </g>
    <g id="xtick_6">
     <g id="line2d_6">
      <g>
       <use xlink:href="#mcaad2b862d" x="557.235" y="404.12" style="stroke: #000000; stroke-width: 0.8"/>
      </g>
     </g>
     <g id="text_6">
      <!-- 1.0 -->
      <g transform="translate(549.283437 418.718437) scale(0.1 -0.1)">
       <defs>
        <path id="DejaVuSans-31" d="M 794 531 
L 1825 531 
L 1825 4091 
L 703 3866 
L 703 4441 
L 1819 4666 
L 2450 4666 
L 2450 531 
L 3481 531 
L 3481 0 
L 794 0 
L 794 531 
z
" transform="scale(0.015625)"/>
       </defs>
       <use xlink:href="#DejaVuSans-31"/>
       <use xlink:href="#DejaVuSans-2e" transform="translate(63.623047 0)"/>
       <use xlink:href="#DejaVuSans-30" transform="translate(95.410156 0)"/>
      </g>
     </g>
    </g>
   </g>
   <g id="matplotlib.axis_2">
    <g id="ytick_1">
     <g id="line2d_7">
      <defs>
       <path id="m3a8059e84f" d="M 0 0 
L -3.5 0 
" style="stroke: #000000; stroke-width: 0.8"/>
      </defs>
      <g>
       <use xlink:href="#m3a8059e84f" x="33.73" y="404.12" style="stroke: #000000; stroke-width: 0.8"/>
      </g>
     </g>
     <g id="text_7">
      <!-- 0.0 -->
      <g transform="translate(10.826875 407.919219) scale(0.1 -0.1)">
       <use xlink:href="#DejaVuSans-30"/>
       <use xlink:href="#DejaVuSans-2e" transform="translate(63.623047 0)"/>
       <use xlink:href="#DejaVuSans-30" transform="translate(95.410156 0)"/>
      </g>
     </g>
    </g>
    <g id="ytick_2">
     <g id="line2d_8">
      <g>
       <use xlink:href="#m3a8059e84f" x="33.73" y="328.384" style="stroke: #000000; stroke-width: 0.8"/>
      </g>
     </g>
     <g id="text_8">
      <!-- 0.2 -->
      <g transform="translate(10.826875 332.183219) scale(0.1 -0.1)">
       <use xlink:href="#DejaVuSans-30"/>
       <use xlink:href="#DejaVuSans-2e" transform="translate(63.623047 0)"/>
       <use xlink:href="#DejaVuSans-32" transform="translate(95.410156 0)"/>
      </g>
     </g>
    </g>
    <g id="ytick_3">
     <g id="line2d_9">
      <g>
       <use xlink:href="#m3a8059e84f" x="33.73" y="252.648" style="stroke: #000000; stroke-width: 0.8"/>
      </g>
     </g>
     <g id="text_9">
      <!-- 0.4 -->
      <g transform="translate(10.826875 256.447219) scale(0.1 -0.1)">
       <use xlink:href="#DejaVuSans-30"/>
       <use xlink:href="#DejaVuSans-2e" transform="translate(63.623047 0)"/>
       <use xlink:href="#DejaVuSans-34" transform="translate(95.410156 0)"/>
      </g>
     </g>
    </g>
    <g id="ytick_4">
     <g id="line2d_10">
      <g>
       <use xlink:href="#m3a8059e84f" x="33.73" y="176.912" style="stroke: #000000; stroke-width: 0.8"/>
      </g>
     </g>
     <g id="text_10">
      <!-- 0.6 -->
      <g transform="translate(10.826875 180.711219) scale(0.1 -0.1)">
       <use xlink:href="#DejaVuSans-30"/>
       <use xlink:href="#DejaVuSans-2e" transform="translate(63.623047 0)"/>
       <use xlink:href="#DejaVuSans-36" transform="translate(95.410156 0)"/>
      </g>
     </g>
    </g>
    <g id="ytick_5">
     <g id="line2d_11">
      <g>
       <use xlink:href="#m3a8059e84f" x="33.73" y="101.176" style="stroke: #000000; stroke-width: 0.8"/>
      </g>
     </g>
     <g id="text_11">
      <!-- 0.8 -->
      <g transform="translate(10.826875 104.975219) scale(0.1 -0.1)">
       <use xlink:href="#DejaVuSans-30"/>
       <use xlink:href="#DejaVuSans-2e" transform="translate(63.623047 0)"/>
       <use xlink:href="#DejaVuSans-38" transform="translate(95.410156 0)"/>
      </g>
     </g>
    </g>
    <g id="ytick_6">
     <g id="line2d_12">
      <g>
       <use xlink:href="#m3a8059e84f" x="33.73" y="25.44" style="stroke: #000000; stroke-width: 0.8"/>
      </g>
     </g>
     <g id="text_12">
      <!-- 1.0 -->
      <g transform="translate(10.826875 29.239219) scale(0.1 -0.1)">
       <use xlink:href="#DejaVuSans-31"/>
       <use xlink:href="#DejaVuSans-2e" transform="translate(63.623047 0)"/>
       <use xlink:href="#DejaVuSans-30" transform="translate(95.410156 0)"/>
      </g>
     </g>
    </g>
   </g>
   <g id="patch_3">
    <path d="M 33.73 404.12 
L 33.73 25.44 
" style="fill: none; stroke: #000000; stroke-width: 0.8; stroke-linejoin: miter; stroke-linecap: square"/>
   </g>
   <g id="patch_4">
    <path d="M 557.235 404.12 
L 557.235 25.44 
" style="fill: none; stroke: #000000; stroke-width: 0.8; stroke-linejoin: miter; stroke-linecap: square"/>
   </g>
   <g id="patch_5">
    <path d="M 33.73 404.12 
L 557.235 404.12 
" style="fill: none; stroke: #000000; stroke-width: 0.8; stroke-linejoin: miter; stroke-linecap: square"/>
   </g>
   <g id="patch_6">
    <path d="M 33.73 25.44 
L 557.235 25.44 
" style="fill: none; stroke: #000000; stroke-width: 0.8; stroke-linejoin: miter; stroke-linecap: square"/>
   </g>
  </g>
  <g id="patch_7">
   <path d="M 106.1425 404.12 
L 484.8225 404.12 
L 484.8225 25.44 
L 106.1425 25.44 
z
" style="fill: #ffffff"/>
  </g>
  <g id="pane3d_1">
   <g id="patch_8">
    <path d="M 134.735451 310.749648 
L 259.787955 205.92816 
L 258.049605 54.756836 
L 127.012695 150.381605 
" style="fill: #f2f2f2; opacity: 0.5; stroke: #f2f2f2; stroke-linejoin: miter"/>
   </g>
  </g>
  <g id="pane3d_2">
   <g id="patch_9">
    <path d="M 259.787955 205.92816 
L 460.452603 264.253451 
L 467.613617 107.875204 
L 258.049605 54.756836 
" style="fill: #e6e6e6; opacity: 0.5; stroke: #e6e6e6; stroke-linejoin: miter"/>
   </g>
  </g>
  <g id="pane3d_3">
   <g id="patch_10">
    <path d="M 134.735451 310.749648 
L 347.44978 380.222147 
L 460.452603 264.253451 
L 259.787955 205.92816 
" style="fill: #ececec; opacity: 0.5; stroke: #ececec; stroke-linejoin: miter"/>
   </g>
  </g>
  <g id="grid3d_1">
   <g id="Line3DCollection_1">
    <path d="M 147.618547 314.957267 
L 271.991764 209.475326 
L 270.769401 57.980934 
" style="fill: none; stroke: #b0b0b0; stroke-width: 0.8"/>
    <path d="M 169.901579 322.234905 
L 293.08445 215.606137 
L 292.761596 63.555314 
" style="fill: none; stroke: #b0b0b0; stroke-width: 0.8"/>
    <path d="M 192.438036 329.595312 
L 314.397158 221.800899 
L 314.993107 69.190354 
" style="fill: none; stroke: #b0b0b0; stroke-width: 0.8"/>
    <path d="M 215.232266 337.039907 
L 335.93335 228.06062 
L 337.467859 74.887049 
" style="fill: none; stroke: #b0b0b0; stroke-width: 0.8"/>
    <path d="M 238.288719 344.570145 
L 357.696559 234.386326 
L 360.189868 80.646415 
" style="fill: none; stroke: #b0b0b0; stroke-width: 0.8"/>
    <path d="M 261.611944 352.18751 
L 379.690395 240.779066 
L 383.163236 86.469494 
" style="fill: none; stroke: #b0b0b0; stroke-width: 0.8"/>
    <path d="M 285.206599 359.893524 
L 401.918541 247.23991 
L 406.392157 92.357349 
" style="fill: none; stroke: #b0b0b0; stroke-width: 0.8"/>
    <path d="M 309.07745 367.689744 
L 424.384763 253.769954 
L 429.880919 98.311065 
" style="fill: none; stroke: #b0b0b0; stroke-width: 0.8"/>
    <path d="M 333.229375 375.577763 
L 447.092907 260.370315 
L 453.633908 104.331756 
" style="fill: none; stroke: #b0b0b0; stroke-width: 0.8"/>
   </g>
  </g>
  <g id="grid3d_2">
   <g id="Line3DCollection_2">
    <path d="M 136.074222 143.768915 
L 143.352626 303.526561 
L 355.268701 372.198011 
" style="fill: none; stroke: #b0b0b0; stroke-width: 0.8"/>
    <path d="M 151.362364 132.612325 
L 157.901326 291.331553 
L 368.458867 358.661655 
" style="fill: none; stroke: #b0b0b0; stroke-width: 0.8"/>
    <path d="M 166.347835 121.676611 
L 172.174494 279.3675 
L 381.386051 345.395184 
" style="fill: none; stroke: #b0b0b0; stroke-width: 0.8"/>
    <path d="M 181.039534 110.955279 
L 186.179884 267.627905 
L 394.05804 332.390606 
" style="fill: none; stroke: #b0b0b0; stroke-width: 0.8"/>
    <path d="M 195.446016 100.442084 
L 199.924962 256.106508 
L 406.482316 319.640242 
" style="fill: none; stroke: #b0b0b0; stroke-width: 0.8"/>
    <path d="M 209.575506 90.131026 
L 213.416918 244.797283 
L 418.666074 307.13671 
" style="fill: none; stroke: #b0b0b0; stroke-width: 0.8"/>
    <path d="M 223.435918 80.016329 
L 226.66268 233.694422 
L 430.616229 294.872911 
" style="fill: none; stroke: #b0b0b0; stroke-width: 0.8"/>
    <path d="M 237.034864 70.092437 
L 239.668927 222.792327 
L 442.339437 282.842015 
" style="fill: none; stroke: #b0b0b0; stroke-width: 0.8"/>
    <path d="M 250.379676 60.354001 
L 252.442097 212.085603 
L 453.842102 271.037452 
" style="fill: none; stroke: #b0b0b0; stroke-width: 0.8"/>
   </g>
  </g>
  <g id="grid3d_3">
   <g id="Line3DCollection_3">
    <path d="M 460.5898 261.257417 
L 259.754581 203.025881 
L 134.587736 307.682251 
" style="fill: none; stroke: #b0b0b0; stroke-width: 0.8"/>
    <path d="M 461.918974 232.231647 
L 259.431392 174.920586 
L 133.156171 277.954857 
" style="fill: none; stroke: #b0b0b0; stroke-width: 0.8"/>
    <path d="M 463.270419 202.719554 
L 259.103049 146.366975 
L 131.6997 247.71031 
" style="fill: none; stroke: #b0b0b0; stroke-width: 0.8"/>
    <path d="M 464.644698 172.70881 
L 258.769425 117.354238 
L 130.21767 216.934996 
" style="fill: none; stroke: #b0b0b0; stroke-width: 0.8"/>
    <path d="M 466.042395 142.186671 
L 258.430394 87.871209 
L 128.709402 185.614819 
" style="fill: none; stroke: #b0b0b0; stroke-width: 0.8"/>
    <path d="M 467.464115 111.139952 
L 258.085822 57.90636 
L 127.174191 153.73518 
" style="fill: none; stroke: #b0b0b0; stroke-width: 0.8"/>
   </g>
  </g>
  <g id="axis3d_1">
   <g id="line2d_13">
    <path d="M 134.735451 310.749648 
L 347.44978 380.222147 
" style="fill: none; stroke: #000000; stroke-width: 0.8; stroke-linecap: square"/>
   </g>
   <g id="xtick_7">
    <g id="line2d_14">
     <path d="M 148.701582 314.038736 
L 145.44783 316.79827 
" style="fill: none; stroke: #000000; stroke-width: 0.8; stroke-linecap: square"/>
    </g>
    <g id="text_13">
     <!-- −1.00 -->
     <g transform="translate(124.775152 338.249075) scale(0.1 -0.1)">
      <defs>
       <path id="DejaVuSans-2212" d="M 678 2272 
L 4684 2272 
L 4684 1741 
L 678 1741 
L 678 2272 
z
" transform="scale(0.015625)"/>
      </defs>
      <use xlink:href="#DejaVuSans-2212"/>
      <use xlink:href="#DejaVuSans-31" transform="translate(83.789062 0)"/>
      <use xlink:href="#DejaVuSans-2e" transform="translate(147.412109 0)"/>
      <use xlink:href="#DejaVuSans-30" transform="translate(179.199219 0)"/>
      <use xlink:href="#DejaVuSans-30" transform="translate(242.822266 0)"/>
     </g>
    </g>
   </g>
   <g id="xtick_8">
    <g id="line2d_15">
     <path d="M 170.974741 321.305961 
L 167.750623 324.096801 
" style="fill: none; stroke: #000000; stroke-width: 0.8; stroke-linecap: square"/>
    </g>
    <g id="text_14">
     <!-- −0.75 -->
     <g transform="translate(147.074021 345.634779) scale(0.1 -0.1)">
      <defs>
       <path id="DejaVuSans-37" d="M 525 4666 
L 3525 4666 
L 3525 4397 
L 1831 0 
L 1172 0 
L 2766 4134 
L 525 4134 
L 525 4666 
z
" transform="scale(0.015625)"/>
       <path id="DejaVuSans-35" d="M 691 4666 
L 3169 4666 
L 3169 4134 
L 1269 4134 
L 1269 2991 
Q 1406 3038 1543 3061 
Q 1681 3084 1819 3084 
Q 2600 3084 3056 2656 
Q 3513 2228 3513 1497 
Q 3513 744 3044 326 
Q 2575 -91 1722 -91 
Q 1428 -91 1123 -41 
Q 819 9 494 109 
L 494 744 
Q 775 591 1075 516 
Q 1375 441 1709 441 
Q 2250 441 2565 725 
Q 2881 1009 2881 1497 
Q 2881 1984 2565 2268 
Q 2250 2553 1709 2553 
Q 1456 2553 1204 2497 
Q 953 2441 691 2322 
L 691 4666 
z
" transform="scale(0.015625)"/>
      </defs>
      <use xlink:href="#DejaVuSans-2212"/>
      <use xlink:href="#DejaVuSans-30" transform="translate(83.789062 0)"/>
      <use xlink:href="#DejaVuSans-2e" transform="translate(147.412109 0)"/>
      <use xlink:href="#DejaVuSans-37" transform="translate(179.199219 0)"/>
      <use xlink:href="#DejaVuSans-35" transform="translate(242.822266 0)"/>
     </g>
    </g>
   </g>
   <g id="xtick_9">
    <g id="line2d_16">
     <path d="M 193.50103 328.655777 
L 190.307434 331.478459 
" style="fill: none; stroke: #000000; stroke-width: 0.8; stroke-linecap: square"/>
    </g>
    <g id="text_15">
     <!-- −0.50 -->
     <g transform="translate(169.627165 353.104703) scale(0.1 -0.1)">
      <use xlink:href="#DejaVuSans-2212"/>
      <use xlink:href="#DejaVuSans-30" transform="translate(83.789062 0)"/>
      <use xlink:href="#DejaVuSans-2e" transform="translate(147.412109 0)"/>
      <use xlink:href="#DejaVuSans-35" transform="translate(179.199219 0)"/>
      <use xlink:href="#DejaVuSans-30" transform="translate(242.822266 0)"/>
     </g>
    </g>
   </g>
   <g id="xtick_10">
    <g id="line2d_17">
     <path d="M 216.28479 336.089599 
L 213.122626 338.944672 
" style="fill: none; stroke: #000000; stroke-width: 0.8; stroke-linecap: square"/>
    </g>
    <g id="text_16">
     <!-- −0.25 -->
     <g transform="translate(192.438959 360.660296) scale(0.1 -0.1)">
      <use xlink:href="#DejaVuSans-2212"/>
      <use xlink:href="#DejaVuSans-30" transform="translate(83.789062 0)"/>
      <use xlink:href="#DejaVuSans-2e" transform="translate(147.412109 0)"/>
      <use xlink:href="#DejaVuSans-32" transform="translate(179.199219 0)"/>
      <use xlink:href="#DejaVuSans-35" transform="translate(242.822266 0)"/>
     </g>
    </g>
   </g>
   <g id="xtick_11">
    <g id="line2d_18">
     <path d="M 239.330459 343.608877 
L 236.200665 346.4969 
" style="fill: none; stroke: #000000; stroke-width: 0.8; stroke-linecap: square"/>
    </g>
    <g id="text_17">
     <!-- 0.00 -->
     <g transform="translate(219.70372 368.303039) scale(0.1 -0.1)">
      <use xlink:href="#DejaVuSans-30"/>
      <use xlink:href="#DejaVuSans-2e" transform="translate(63.623047 0)"/>
      <use xlink:href="#DejaVuSans-30" transform="translate(95.410156 0)"/>
      <use xlink:href="#DejaVuSans-30" transform="translate(159.033203 0)"/>
     </g>
    </g>
   </g>
   <g id="xtick_12">
    <g id="line2d_19">
     <path d="M 262.642581 351.215092 
L 259.54612 354.13664 
" style="fill: none; stroke: #000000; stroke-width: 0.8; stroke-linecap: square"/>
    </g>
    <g id="text_18">
     <!-- 0.25 -->
     <g transform="translate(243.046341 376.034449) scale(0.1 -0.1)">
      <use xlink:href="#DejaVuSans-30"/>
      <use xlink:href="#DejaVuSans-2e" transform="translate(63.623047 0)"/>
      <use xlink:href="#DejaVuSans-32" transform="translate(95.410156 0)"/>
      <use xlink:href="#DejaVuSans-35" transform="translate(159.033203 0)"/>
     </g>
    </g>
   </g>
   <g id="xtick_13">
    <g id="line2d_20">
     <path d="M 286.225803 358.909761 
L 283.163666 361.865421 
" style="fill: none; stroke: #000000; stroke-width: 0.8; stroke-linecap: square"/>
    </g>
    <g id="text_19">
     <!-- 0.50 -->
     <g transform="translate(266.661351 383.856078) scale(0.1 -0.1)">
      <use xlink:href="#DejaVuSans-30"/>
      <use xlink:href="#DejaVuSans-2e" transform="translate(63.623047 0)"/>
      <use xlink:href="#DejaVuSans-35" transform="translate(95.410156 0)"/>
      <use xlink:href="#DejaVuSans-30" transform="translate(159.033203 0)"/>
     </g>
    </g>
   </g>
   <g id="xtick_14">
    <g id="line2d_21">
     <path d="M 310.084882 366.694435 
L 307.058086 369.684808 
" style="fill: none; stroke: #000000; stroke-width: 0.8; stroke-linecap: square"/>
    </g>
    <g id="text_20">
     <!-- 0.75 -->
     <g transform="translate(290.553547 391.769515) scale(0.1 -0.1)">
      <use xlink:href="#DejaVuSans-30"/>
      <use xlink:href="#DejaVuSans-2e" transform="translate(63.623047 0)"/>
      <use xlink:href="#DejaVuSans-37" transform="translate(95.410156 0)"/>
      <use xlink:href="#DejaVuSans-35" transform="translate(159.033203 0)"/>
     </g>
    </g>
   </g>
   <g id="xtick_15">
    <g id="line2d_22">
     <path d="M 334.224686 374.570704 
L 331.23428 377.596405 
" style="fill: none; stroke: #000000; stroke-width: 0.8; stroke-linecap: square"/>
    </g>
    <g id="text_21">
     <!-- 1.00 -->
     <g transform="translate(314.727836 399.776386) scale(0.1 -0.1)">
      <use xlink:href="#DejaVuSans-31"/>
      <use xlink:href="#DejaVuSans-2e" transform="translate(63.623047 0)"/>
      <use xlink:href="#DejaVuSans-30" transform="translate(95.410156 0)"/>
      <use xlink:href="#DejaVuSans-30" transform="translate(159.033203 0)"/>
     </g>
    </g>
   </g>
  </g>
  <g id="axis3d_2">
   <g id="line2d_23">
    <path d="M 460.452603 264.253451 
L 347.44978 380.222147 
" style="fill: none; stroke: #000000; stroke-width: 0.8; stroke-linecap: square"/>
   </g>
   <g id="xtick_16">
    <g id="line2d_24">
     <path d="M 353.482878 371.619314 
L 358.844965 373.3569 
" style="fill: none; stroke: #000000; stroke-width: 0.8; stroke-linecap: square"/>
    </g>
    <g id="text_22">
     <!-- −1.00 -->
     <g transform="translate(352.824386 393.217352) scale(0.1 -0.1)">
      <use xlink:href="#DejaVuSans-2212"/>
      <use xlink:href="#DejaVuSans-31" transform="translate(83.789062 0)"/>
      <use xlink:href="#DejaVuSans-2e" transform="translate(147.412109 0)"/>
      <use xlink:href="#DejaVuSans-30" transform="translate(179.199219 0)"/>
      <use xlink:href="#DejaVuSans-30" transform="translate(242.822266 0)"/>
     </g>
    </g>
   </g>
   <g id="xtick_17">
    <g id="line2d_25">
     <path d="M 366.685397 358.094552 
L 372.010347 359.797314 
" style="fill: none; stroke: #000000; stroke-width: 0.8; stroke-linecap: square"/>
    </g>
    <g id="text_23">
     <!-- −0.75 -->
     <g transform="translate(365.890316 379.540164) scale(0.1 -0.1)">
      <use xlink:href="#DejaVuSans-2212"/>
      <use xlink:href="#DejaVuSans-30" transform="translate(83.789062 0)"/>
      <use xlink:href="#DejaVuSans-2e" transform="translate(147.412109 0)"/>
      <use xlink:href="#DejaVuSans-37" transform="translate(179.199219 0)"/>
      <use xlink:href="#DejaVuSans-35" transform="translate(242.822266 0)"/>
     </g>
    </g>
   </g>
   <g id="xtick_18">
    <g id="line2d_26">
     <path d="M 379.624799 344.839329 
L 384.913018 346.508304 
" style="fill: none; stroke: #000000; stroke-width: 0.8; stroke-linecap: square"/>
    </g>
    <g id="text_24">
     <!-- −0.50 -->
     <g transform="translate(378.695634 366.135781) scale(0.1 -0.1)">
      <use xlink:href="#DejaVuSans-2212"/>
      <use xlink:href="#DejaVuSans-30" transform="translate(83.789062 0)"/>
      <use xlink:href="#DejaVuSans-2e" transform="translate(147.412109 0)"/>
      <use xlink:href="#DejaVuSans-35" transform="translate(179.199219 0)"/>
      <use xlink:href="#DejaVuSans-30" transform="translate(242.822266 0)"/>
     </g>
    </g>
   </g>
   <g id="xtick_19">
    <g id="line2d_27">
     <path d="M 392.308872 331.845668 
L 397.560765 333.481851 
" style="fill: none; stroke: #000000; stroke-width: 0.8; stroke-linecap: square"/>
    </g>
    <g id="text_25">
     <!-- −0.25 -->
     <g transform="translate(391.248059 352.996122) scale(0.1 -0.1)">
      <use xlink:href="#DejaVuSans-2212"/>
      <use xlink:href="#DejaVuSans-30" transform="translate(83.789062 0)"/>
      <use xlink:href="#DejaVuSans-2e" transform="translate(147.412109 0)"/>
      <use xlink:href="#DejaVuSans-32" transform="translate(179.199219 0)"/>
      <use xlink:href="#DejaVuSans-35" transform="translate(242.822266 0)"/>
     </g>
    </g>
   </g>
   <g id="xtick_20">
    <g id="line2d_28">
     <path d="M 404.745098 319.105902 
L 409.961069 320.710251 
" style="fill: none; stroke: #000000; stroke-width: 0.8; stroke-linecap: square"/>
    </g>
    <g id="text_26">
     <!-- 0.00 -->
     <g transform="translate(407.744853 340.113421) scale(0.1 -0.1)">
      <use xlink:href="#DejaVuSans-30"/>
      <use xlink:href="#DejaVuSans-2e" transform="translate(63.623047 0)"/>
      <use xlink:href="#DejaVuSans-30" transform="translate(95.410156 0)"/>
      <use xlink:href="#DejaVuSans-30" transform="translate(159.033203 0)"/>
     </g>
    </g>
   </g>
   <g id="xtick_21">
    <g id="line2d_29">
     <path d="M 416.940673 306.612662 
L 422.121121 308.186096 
" style="fill: none; stroke: #000000; stroke-width: 0.8; stroke-linecap: square"/>
    </g>
    <g id="text_27">
     <!-- 0.25 -->
     <g transform="translate(419.81346 327.480213) scale(0.1 -0.1)">
      <use xlink:href="#DejaVuSans-30"/>
      <use xlink:href="#DejaVuSans-2e" transform="translate(63.623047 0)"/>
      <use xlink:href="#DejaVuSans-32" transform="translate(95.410156 0)"/>
      <use xlink:href="#DejaVuSans-35" transform="translate(159.033203 0)"/>
     </g>
    </g>
   </g>
   <g id="xtick_22">
    <g id="line2d_30">
     <path d="M 428.902514 294.35886 
L 434.047836 295.902265 
" style="fill: none; stroke: #000000; stroke-width: 0.8; stroke-linecap: square"/>
    </g>
    <g id="text_28">
     <!-- 0.50 -->
     <g transform="translate(431.650581 315.089321) scale(0.1 -0.1)">
      <use xlink:href="#DejaVuSans-30"/>
      <use xlink:href="#DejaVuSans-2e" transform="translate(63.623047 0)"/>
      <use xlink:href="#DejaVuSans-35" transform="translate(95.410156 0)"/>
      <use xlink:href="#DejaVuSans-30" transform="translate(159.033203 0)"/>
     </g>
    </g>
   </g>
   <g id="xtick_23">
    <g id="line2d_31">
     <path d="M 440.637277 282.337679 
L 445.747867 283.851906 
" style="fill: none; stroke: #000000; stroke-width: 0.8; stroke-linecap: square"/>
    </g>
    <g id="text_29">
     <!-- 0.75 -->
     <g transform="translate(443.262814 302.933839) scale(0.1 -0.1)">
      <use xlink:href="#DejaVuSans-30"/>
      <use xlink:href="#DejaVuSans-2e" transform="translate(63.623047 0)"/>
      <use xlink:href="#DejaVuSans-37" transform="translate(95.410156 0)"/>
      <use xlink:href="#DejaVuSans-35" transform="translate(159.033203 0)"/>
     </g>
    </g>
   </g>
   <g id="xtick_24">
    <g id="line2d_32">
     <path d="M 452.151367 270.542556 
L 457.227615 272.028426 
" style="fill: none; stroke: #000000; stroke-width: 0.8; stroke-linecap: square"/>
    </g>
    <g id="text_30">
     <!-- 1.00 -->
     <g transform="translate(454.656506 291.007121) scale(0.1 -0.1)">
      <use xlink:href="#DejaVuSans-31"/>
      <use xlink:href="#DejaVuSans-2e" transform="translate(63.623047 0)"/>
      <use xlink:href="#DejaVuSans-30" transform="translate(95.410156 0)"/>
      <use xlink:href="#DejaVuSans-30" transform="translate(159.033203 0)"/>
     </g>
    </g>
   </g>
  </g>
  <g id="axis3d_3">
   <g id="line2d_33">
    <path d="M 460.452603 264.253451 
L 467.613617 107.875204 
" style="fill: none; stroke: #000000; stroke-width: 0.8; stroke-linecap: square"/>
   </g>
   <g id="xtick_25">
    <g id="line2d_34">
     <path d="M 458.904172 260.768674 
L 463.965069 262.236065 
" style="fill: none; stroke: #000000; stroke-width: 0.8; stroke-linecap: square"/>
    </g>
    <g id="text_31">
     <!-- 1.0 -->
     <g transform="translate(470.918509 266.252624) scale(0.1 -0.1)">
      <use xlink:href="#DejaVuSans-31"/>
      <use xlink:href="#DejaVuSans-2e" transform="translate(63.623047 0)"/>
      <use xlink:href="#DejaVuSans-30" transform="translate(95.410156 0)"/>
     </g>
    </g>
   </g>
   <g id="xtick_26">
    <g id="line2d_35">
     <path d="M 460.218817 231.750443 
L 465.323371 233.195211 
" style="fill: none; stroke: #000000; stroke-width: 0.8; stroke-linecap: square"/>
    </g>
    <g id="text_32">
     <!-- 1.2 -->
     <g transform="translate(472.396402 237.267044) scale(0.1 -0.1)">
      <use xlink:href="#DejaVuSans-31"/>
      <use xlink:href="#DejaVuSans-2e" transform="translate(63.623047 0)"/>
      <use xlink:href="#DejaVuSans-32" transform="translate(95.410156 0)"/>
     </g>
    </g>
   </g>
   <g id="xtick_27">
    <g id="line2d_36">
     <path d="M 461.555479 202.246211 
L 466.704449 203.667386 
" style="fill: none; stroke: #000000; stroke-width: 0.8; stroke-linecap: square"/>
    </g>
    <g id="text_33">
     <!-- 1.4 -->
     <g transform="translate(473.899003 207.796855) scale(0.1 -0.1)">
      <use xlink:href="#DejaVuSans-31"/>
      <use xlink:href="#DejaVuSans-2e" transform="translate(63.623047 0)"/>
      <use xlink:href="#DejaVuSans-34" transform="translate(95.410156 0)"/>
     </g>
    </g>
   </g>
   <g id="xtick_28">
    <g id="line2d_37">
     <path d="M 462.914718 172.243663 
L 468.108881 173.64024 
" style="fill: none; stroke: #000000; stroke-width: 0.8; stroke-linecap: square"/>
    </g>
    <g id="text_34">
     <!-- 1.6 -->
     <g transform="translate(475.426938 177.829803) scale(0.1 -0.1)">
      <use xlink:href="#DejaVuSans-31"/>
      <use xlink:href="#DejaVuSans-2e" transform="translate(63.623047 0)"/>
      <use xlink:href="#DejaVuSans-36" transform="translate(95.410156 0)"/>
     </g>
    </g>
   </g>
   <g id="xtick_29">
    <g id="line2d_38">
     <path d="M 464.297109 141.730069 
L 469.537265 143.100999 
" style="fill: none; stroke: #000000; stroke-width: 0.8; stroke-linecap: square"/>
    </g>
    <g id="text_35">
     <!-- 1.8 -->
     <g transform="translate(476.980852 147.353213) scale(0.1 -0.1)">
      <use xlink:href="#DejaVuSans-31"/>
      <use xlink:href="#DejaVuSans-2e" transform="translate(63.623047 0)"/>
      <use xlink:href="#DejaVuSans-38" transform="translate(95.410156 0)"/>
     </g>
    </g>
   </g>
   <g id="xtick_30">
    <g id="line2d_39">
     <path d="M 465.703249 110.692258 
L 470.990219 112.036449 
" style="fill: none; stroke: #000000; stroke-width: 0.8; stroke-linecap: square"/>
    </g>
    <g id="text_36">
     <!-- 2.0 -->
     <g transform="translate(478.561415 116.353979) scale(0.1 -0.1)">
      <use xlink:href="#DejaVuSans-32"/>
      <use xlink:href="#DejaVuSans-2e" transform="translate(63.623047 0)"/>
      <use xlink:href="#DejaVuSans-30" transform="translate(95.410156 0)"/>
     </g>
    </g>
   </g>
  </g>
  <g id="axes_2">
   <g id="Poly3DCollection_1">
    <path d="M 328.94916 222.62764 
L 307.313757 189.539332 
L 328.046076 232.443413 
z
" clip-path="url(#p5e1a0954de)" style="fill: #114061"/>
    <path d="M 350.738656 237.886694 
L 328.94916 222.62764 
L 328.046076 232.443413 
z
" clip-path="url(#p5e1a0954de)" style="fill: #15517b"/>
    <path d="M 294.761726 218.636487 
L 307.313757 189.539332 
L 284.42878 187.178852 
z
" clip-path="url(#p5e1a0954de)" style="fill: #16537e"/>
    <path d="M 307.313757 189.539332 
L 285.503344 137.994322 
L 284.42878 187.178852 
z
" clip-path="url(#p5e1a0954de)" style="fill: #15517b"/>
    <path d="M 307.313757 189.539332 
L 316.605151 231.589159 
L 328.046076 232.443413 
z
" clip-path="url(#p5e1a0954de)" style="fill: #165580"/>
    <path d="M 307.313757 189.539332 
L 294.761726 218.636487 
L 305.117703 231.406001 
z
" clip-path="url(#p5e1a0954de)" style="fill: #1b689d"/>
    <path d="M 316.605151 231.589159 
L 307.313757 189.539332 
L 305.117703 231.406001 
z
" clip-path="url(#p5e1a0954de)" style="fill: #165682"/>
    <path d="M 338.64105 240.929896 
L 350.738656 237.886694 
L 328.046076 232.443413 
z
" clip-path="url(#p5e1a0954de)" style="fill: #15517b"/>
    <path d="M 282.046629 236.457868 
L 294.761726 218.636487 
L 284.42878 187.178852 
z
" clip-path="url(#p5e1a0954de)" style="fill: #13496f"/>
    <path d="M 272.914009 185.776507 
L 282.046629 236.457868 
L 284.42878 187.178852 
z
" clip-path="url(#p5e1a0954de)" style="fill: #16537e"/>
    <path d="M 238.374289 198.625113 
L 260.237196 223.293937 
L 261.414453 190.197991 
z
" clip-path="url(#p5e1a0954de)" style="fill: #185c8c"/>
    <path d="M 282.046629 236.457868 
L 272.914009 185.776507 
L 261.414453 190.197991 
z
" clip-path="url(#p5e1a0954de)" style="fill: #195e8f"/>
    <path d="M 294.761726 218.636487 
L 282.046629 236.457868 
L 305.117703 231.406001 
z
" clip-path="url(#p5e1a0954de)" style="fill: #185d8d"/>
    <path d="M 250.828 142.350753 
L 238.374289 198.625113 
L 261.414453 190.197991 
z
" clip-path="url(#p5e1a0954de)" style="fill: #175885"/>
    <path d="M 260.237196 223.293937 
L 282.046629 236.457868 
L 261.414453 190.197991 
z
" clip-path="url(#p5e1a0954de)" style="fill: #1b669a"/>
    <path d="M 373.016391 235.399866 
L 350.738656 237.886694 
L 372.542068 241.050836 
z
" clip-path="url(#p5e1a0954de)" style="fill: #196092"/>
    <path d="M 263.176963 66.782458 
L 272.914009 185.776507 
L 284.42878 187.178852 
z
" clip-path="url(#p5e1a0954de)" style="fill: #15517a"/>
    <path d="M 260.237196 223.293937 
L 238.374289 198.625113 
L 258.834338 237.724118 
z
" clip-path="url(#p5e1a0954de)" style="fill: #144c73"/>
    <path d="M 285.503344 137.994322 
L 263.176963 66.782458 
L 284.42878 187.178852 
z
" clip-path="url(#p5e1a0954de)" style="fill: #13476c"/>
    <path d="M 350.738656 237.886694 
L 338.64105 240.929896 
L 349.407806 247.218722 
z
" clip-path="url(#p5e1a0954de)" style="fill: #16547f"/>
    <path d="M 272.914009 185.776507 
L 263.176963 66.782458 
L 261.414453 190.197991 
z
" clip-path="url(#p5e1a0954de)" style="fill: #175783"/>
    <path d="M 238.374289 198.625113 
L 225.626481 236.667238 
L 235.587752 245.108666 
z
" clip-path="url(#p5e1a0954de)" style="fill: #1d70a9"/>
    <path d="M 282.046629 236.457868 
L 260.237196 223.293937 
L 258.834338 237.724118 
z
" clip-path="url(#p5e1a0954de)" style="fill: #175986"/>
    <path d="M 316.605151 231.589159 
L 326.218602 249.557706 
L 328.046076 232.443413 
z
" clip-path="url(#p5e1a0954de)" style="fill: #165681"/>
    <path d="M 350.738656 237.886694 
L 360.966904 245.201276 
L 372.542068 241.050836 
z
" clip-path="url(#p5e1a0954de)" style="fill: #196192"/>
    <path d="M 282.046629 236.457868 
L 304.013565 242.972483 
L 305.117703 231.406001 
z
" clip-path="url(#p5e1a0954de)" style="fill: #185d8d"/>
    <path d="M 238.374289 198.625113 
L 247.214229 241.075478 
L 258.834338 237.724118 
z
" clip-path="url(#p5e1a0954de)" style="fill: #185d8d"/>
    <path d="M 263.176963 66.782458 
L 250.828 142.350753 
L 261.414453 190.197991 
z
" clip-path="url(#p5e1a0954de)" style="fill: #196092"/>
    <path d="M 360.966904 245.201276 
L 350.738656 237.886694 
L 349.407806 247.218722 
z
" clip-path="url(#p5e1a0954de)" style="fill: #185c8b"/>
    <path d="M 326.218602 249.557706 
L 316.605151 231.589159 
L 305.117703 231.406001 
z
" clip-path="url(#p5e1a0954de)" style="fill: #175784"/>
    <path d="M 247.214229 241.075478 
L 238.374289 198.625113 
L 235.587752 245.108666 
z
" clip-path="url(#p5e1a0954de)" style="fill: #195f8f"/>
    <path d="M 326.218602 249.557706 
L 338.64105 240.929896 
L 328.046076 232.443413 
z
" clip-path="url(#p5e1a0954de)" style="fill: #175884"/>
    <path d="M 225.626481 236.667238 
L 212.386881 256.973483 
L 235.587752 245.108666 
z
" clip-path="url(#p5e1a0954de)" style="fill: #1a6498"/>
    <path d="M 269.081898 247.78621 
L 282.046629 236.457868 
L 258.834338 237.724118 
z
" clip-path="url(#p5e1a0954de)" style="fill: #175987"/>
    <path d="M 396.138859 214.703039 
L 373.016391 235.399866 
L 372.542068 241.050836 
z
" clip-path="url(#p5e1a0954de)" style="fill: #1c6da5"/>
    <path d="M 304.013565 242.972483 
L 326.218602 249.557706 
L 305.117703 231.406001 
z
" clip-path="url(#p5e1a0954de)" style="fill: #185d8d"/>
    <path d="M 304.013565 242.972483 
L 282.046629 236.457868 
L 302.894045 252.797504 
z
" clip-path="url(#p5e1a0954de)" style="fill: #185b8a"/>
    <path d="M 338.64105 240.929896 
L 326.218602 249.557706 
L 349.407806 247.218722 
z
" clip-path="url(#p5e1a0954de)" style="fill: #175a88"/>
    <path d="M 212.386881 256.973483 
L 233.924838 255.392761 
L 235.587752 245.108666 
z
" clip-path="url(#p5e1a0954de)" style="fill: #1a6498"/>
    <path d="M 282.046629 236.457868 
L 269.081898 247.78621 
L 279.44545 256.054531 
z
" clip-path="url(#p5e1a0954de)" style="fill: #185b8a"/>
    <path d="M 247.214229 241.075478 
L 255.871824 259.328925 
L 258.834338 237.724118 
z
" clip-path="url(#p5e1a0954de)" style="fill: #195f90"/>
    <path d="M 255.871824 259.328925 
L 247.214229 241.075478 
L 235.587752 245.108666 
z
" clip-path="url(#p5e1a0954de)" style="fill: #196192"/>
    <path d="M 282.046629 236.457868 
L 291.185314 254.423856 
L 302.894045 252.797504 
z
" clip-path="url(#p5e1a0954de)" style="fill: #185b8a"/>
    <path d="M 326.218602 249.557706 
L 304.013565 242.972483 
L 302.894045 252.797504 
z
" clip-path="url(#p5e1a0954de)" style="fill: #185b8a"/>
    <path d="M 383.694991 244.003345 
L 396.138859 214.703039 
L 372.542068 241.050836 
z
" clip-path="url(#p5e1a0954de)" style="fill: #1d6fa8"/>
    <path d="M 291.185314 254.423856 
L 282.046629 236.457868 
L 279.44545 256.054531 
z
" clip-path="url(#p5e1a0954de)" style="fill: #185b8a"/>
    <path d="M 255.871824 259.328925 
L 269.081898 247.78621 
L 258.834338 237.724118 
z
" clip-path="url(#p5e1a0954de)" style="fill: #175987"/>
    <path d="M 360.966904 245.201276 
L 371.358626 262.94463 
L 372.542068 241.050836 
z
" clip-path="url(#p5e1a0954de)" style="fill: #196193"/>
    <path d="M 326.218602 249.557706 
L 348.665629 256.214695 
L 349.407806 247.218722 
z
" clip-path="url(#p5e1a0954de)" style="fill: #175a88"/>
    <path d="M 233.924838 255.392761 
L 255.871824 259.328925 
L 235.587752 245.108666 
z
" clip-path="url(#p5e1a0954de)" style="fill: #195f8f"/>
    <path d="M 371.358626 262.94463 
L 360.966904 245.201276 
L 349.407806 247.218722 
z
" clip-path="url(#p5e1a0954de)" style="fill: #185c8b"/>
    <path d="M 233.924838 255.392761 
L 212.386881 256.973483 
L 232.189631 263.512199 
z
" clip-path="url(#p5e1a0954de)" style="fill: #1a6294"/>
    <path d="M 371.358626 262.94463 
L 383.694991 244.003345 
L 372.542068 241.050836 
z
" clip-path="url(#p5e1a0954de)" style="fill: #1b689d"/>
    <path d="M 269.081898 247.78621 
L 255.871824 259.328925 
L 279.44545 256.054531 
z
" clip-path="url(#p5e1a0954de)" style="fill: #185b8a"/>
    <path d="M 313.530579 261.134128 
L 326.218602 249.557706 
L 302.894045 252.797504 
z
" clip-path="url(#p5e1a0954de)" style="fill: #185b8a"/>
    <path d="M 348.665629 256.214695 
L 371.358626 262.94463 
L 349.407806 247.218722 
z
" clip-path="url(#p5e1a0954de)" style="fill: #175a88"/>
    <path d="M 212.386881 256.973483 
L 198.439107 259.495973 
L 208.289838 263.826683 
z
" clip-path="url(#p5e1a0954de)" style="fill: #165581"/>
    <path d="M 396.138859 214.703039 
L 383.694991 244.003345 
L 394.988184 248.696963 
z
" clip-path="url(#p5e1a0954de)" style="fill: #1d6ea6"/>
    <path d="M 212.386881 256.973483 
L 220.285715 264.749547 
L 232.189631 263.512199 
z
" clip-path="url(#p5e1a0954de)" style="fill: #175a88"/>
    <path d="M 348.665629 256.214695 
L 326.218602 249.557706 
L 347.898822 266.255916 
z
" clip-path="url(#p5e1a0954de)" style="fill: #185b8a"/>
    <path d="M 220.285715 264.749547 
L 212.386881 256.973483 
L 208.289838 263.826683 
z
" clip-path="url(#p5e1a0954de)" style="fill: #165581"/>
    <path d="M 255.871824 259.328925 
L 233.924838 255.392761 
L 232.189631 263.512199 
z
" clip-path="url(#p5e1a0954de)" style="fill: #185c8b"/>
    <path d="M 406.950057 236.971394 
L 396.138859 214.703039 
L 394.988184 248.696963 
z
" clip-path="url(#p5e1a0954de)" style="fill: #1c6da5"/>
    <path d="M 291.185314 254.423856 
L 300.599797 272.932039 
L 302.894045 252.797504 
z
" clip-path="url(#p5e1a0954de)" style="fill: #185b8a"/>
    <path d="M 326.218602 249.557706 
L 313.530579 261.134128 
L 324.312886 269.585004 
z
" clip-path="url(#p5e1a0954de)" style="fill: #185b8a"/>
    <path d="M 383.694991 244.003345 
L 371.358626 262.94463 
L 394.988184 248.696963 
z
" clip-path="url(#p5e1a0954de)" style="fill: #1b669b"/>
    <path d="M 255.871824 259.328925 
L 278.112969 266.093123 
L 279.44545 256.054531 
z
" clip-path="url(#p5e1a0954de)" style="fill: #185b8a"/>
    <path d="M 300.599797 272.932039 
L 291.185314 254.423856 
L 279.44545 256.054531 
z
" clip-path="url(#p5e1a0954de)" style="fill: #185b8a"/>
    <path d="M 326.218602 249.557706 
L 336.121684 267.918225 
L 347.898822 266.255916 
z
" clip-path="url(#p5e1a0954de)" style="fill: #185b8a"/>
    <path d="M 371.358626 262.94463 
L 348.665629 256.214695 
L 347.898822 266.255916 
z
" clip-path="url(#p5e1a0954de)" style="fill: #185b8a"/>
    <path d="M 300.599797 272.932039 
L 313.530579 261.134128 
L 302.894045 252.797504 
z
" clip-path="url(#p5e1a0954de)" style="fill: #185b8a"/>
    <path d="M 336.121684 267.918225 
L 326.218602 249.557706 
L 324.312886 269.585004 
z
" clip-path="url(#p5e1a0954de)" style="fill: #185b8a"/>
    <path d="M 396.138859 214.703039 
L 406.950057 236.971394 
L 419.589709 206.093735 
z
" clip-path="url(#p5e1a0954de)" style="fill: #1f76b3"/>
    <path d="M 242.409377 271.092159 
L 255.871824 259.328925 
L 232.189631 263.512199 
z
" clip-path="url(#p5e1a0954de)" style="fill: #185c8c"/>
    <path d="M 420.504552 174.737924 
L 396.138859 214.703039 
L 419.589709 206.093735 
z
" clip-path="url(#p5e1a0954de)" style="fill: #1f76b3"/>
    <path d="M 278.112969 266.093123 
L 300.599797 272.932039 
L 279.44545 256.054531 
z
" clip-path="url(#p5e1a0954de)" style="fill: #185b8a"/>
    <path d="M 371.358626 262.94463 
L 394.500673 262.346245 
L 394.988184 248.696963 
z
" clip-path="url(#p5e1a0954de)" style="fill: #1b669b"/>
    <path d="M 278.112969 266.093123 
L 255.871824 259.328925 
L 276.758526 276.297168 
z
" clip-path="url(#p5e1a0954de)" style="fill: #185b8a"/>
    <path d="M 198.439107 259.495973 
L 183.536009 243.62111 
L 208.289838 263.826683 
z
" clip-path="url(#p5e1a0954de)" style="fill: #124366"/>
    <path d="M 313.530579 261.134128 
L 300.599797 272.932039 
L 324.312886 269.585004 
z
" clip-path="url(#p5e1a0954de)" style="fill: #185b8a"/>
    <path d="M 358.962708 274.777374 
L 371.358626 262.94463 
L 347.898822 266.255916 
z
" clip-path="url(#p5e1a0954de)" style="fill: #185b8a"/>
    <path d="M 220.285715 264.749547 
L 228.687255 283.082291 
L 232.189631 263.512199 
z
" clip-path="url(#p5e1a0954de)" style="fill: #185a89"/>
    <path d="M 255.871824 259.328925 
L 242.409377 271.092159 
L 252.78803 279.680536 
z
" clip-path="url(#p5e1a0954de)" style="fill: #185b8a"/>
    <path d="M 255.871824 259.328925 
L 264.789497 277.986563 
L 276.758526 276.297168 
z
" clip-path="url(#p5e1a0954de)" style="fill: #185b8a"/>
    <path d="M 228.687255 283.082291 
L 220.285715 264.749547 
L 208.289838 263.826683 
z
" clip-path="url(#p5e1a0954de)" style="fill: #165581"/>
    <path d="M 418.363772 250.892781 
L 406.950057 236.971394 
L 394.988184 248.696963 
z
" clip-path="url(#p5e1a0954de)" style="fill: #1c6da5"/>
    <path d="M 300.599797 272.932039 
L 278.112969 266.093123 
L 276.758526 276.297168 
z
" clip-path="url(#p5e1a0954de)" style="fill: #185b8a"/>
    <path d="M 394.500673 262.346245 
L 371.358626 262.94463 
L 393.960429 277.894306 
z
" clip-path="url(#p5e1a0954de)" style="fill: #1b689d"/>
    <path d="M 228.687255 283.082291 
L 242.409377 271.092159 
L 232.189631 263.512199 
z
" clip-path="url(#p5e1a0954de)" style="fill: #185c8c"/>
    <path d="M 264.789497 277.986563 
L 255.871824 259.328925 
L 252.78803 279.680536 
z
" clip-path="url(#p5e1a0954de)" style="fill: #185b8a"/>
    <path d="M 371.358626 262.94463 
L 358.962708 274.777374 
L 370.161856 284.317905 
z
" clip-path="url(#p5e1a0954de)" style="fill: #175a88"/>
    <path d="M 336.121684 267.918225 
L 346.326972 286.839041 
L 347.898822 266.255916 
z
" clip-path="url(#p5e1a0954de)" style="fill: #185b8a"/>
    <path d="M 394.500673 262.346245 
L 418.363772 250.892781 
L 394.988184 248.696963 
z
" clip-path="url(#p5e1a0954de)" style="fill: #1d6ea6"/>
    <path d="M 300.599797 272.932039 
L 323.336403 279.846922 
L 324.312886 269.585004 
z
" clip-path="url(#p5e1a0954de)" style="fill: #185b8a"/>
    <path d="M 183.536009 243.62111 
L 206.215258 268.704751 
L 208.289838 263.826683 
z
" clip-path="url(#p5e1a0954de)" style="fill: #114365"/>
    <path d="M 346.326972 286.839041 
L 336.121684 267.918225 
L 324.312886 269.585004 
z
" clip-path="url(#p5e1a0954de)" style="fill: #185b8a"/>
    <path d="M 371.358626 262.94463 
L 382.046555 282.193291 
L 393.960429 277.894306 
z
" clip-path="url(#p5e1a0954de)" style="fill: #196193"/>
    <path d="M 406.950057 236.971394 
L 418.363772 250.892781 
L 419.589709 206.093735 
z
" clip-path="url(#p5e1a0954de)" style="fill: #1f76b3"/>
    <path d="M 382.046555 282.193291 
L 371.358626 262.94463 
L 370.161856 284.317905 
z
" clip-path="url(#p5e1a0954de)" style="fill: #185c8b"/>
    <path d="M 346.326972 286.839041 
L 358.962708 274.777374 
L 347.898822 266.255916 
z
" clip-path="url(#p5e1a0954de)" style="fill: #185b8a"/>
    <path d="M 206.215258 268.704751 
L 228.687255 283.082291 
L 208.289838 263.826683 
z
" clip-path="url(#p5e1a0954de)" style="fill: #144d74"/>
    <path d="M 242.409377 271.092159 
L 228.687255 283.082291 
L 252.78803 279.680536 
z
" clip-path="url(#p5e1a0954de)" style="fill: #185b8a"/>
    <path d="M 287.419223 284.95786 
L 300.599797 272.932039 
L 276.758526 276.297168 
z
" clip-path="url(#p5e1a0954de)" style="fill: #185b8a"/>
    <path d="M 323.336403 279.846922 
L 346.326972 286.839041 
L 324.312886 269.585004 
z
" clip-path="url(#p5e1a0954de)" style="fill: #185b8a"/>
    <path d="M 418.363772 250.892781 
L 394.500673 262.346245 
L 393.960429 277.894306 
z
" clip-path="url(#p5e1a0954de)" style="fill: #1d6fa8"/>
    <path d="M 323.336403 279.846922 
L 300.599797 272.932039 
L 322.343647 290.279868 
z
" clip-path="url(#p5e1a0954de)" style="fill: #185b8a"/>
    <path d="M 358.962708 274.777374 
L 346.326972 286.839041 
L 370.161856 284.317905 
z
" clip-path="url(#p5e1a0954de)" style="fill: #175a88"/>
    <path d="M 446.578293 113.7543 
L 420.504552 174.737924 
L 419.589709 206.093735 
z
" clip-path="url(#p5e1a0954de)" style="fill: #1f77b4"/>
    <path d="M 206.215258 268.704751 
L 183.536009 243.62111 
L 204.147244 275.394982 
z
" clip-path="url(#p5e1a0954de)" style="fill: #124467"/>
    <path d="M 418.363772 250.892781 
L 432.030275 192.287081 
L 419.589709 206.093735 
z
" clip-path="url(#p5e1a0954de)" style="fill: #1f76b3"/>
    <path d="M 264.789497 277.986563 
L 273.981548 297.218257 
L 276.758526 276.297168 
z
" clip-path="url(#p5e1a0954de)" style="fill: #185b8a"/>
    <path d="M 300.599797 272.932039 
L 287.419223 284.95786 
L 298.228867 293.739555 
z
" clip-path="url(#p5e1a0954de)" style="fill: #185b8a"/>
    <path d="M 228.687255 283.082291 
L 206.215258 268.704751 
L 204.147244 275.394982 
z
" clip-path="url(#p5e1a0954de)" style="fill: #144f77"/>
    <path d="M 228.687255 283.082291 
L 251.207591 290.110698 
L 252.78803 279.680536 
z
" clip-path="url(#p5e1a0954de)" style="fill: #185b8a"/>
    <path d="M 405.350851 290.724718 
L 418.363772 250.892781 
L 393.960429 277.894306 
z
" clip-path="url(#p5e1a0954de)" style="fill: #1c6da5"/>
    <path d="M 273.981548 297.218257 
L 264.789497 277.986563 
L 252.78803 279.680536 
z
" clip-path="url(#p5e1a0954de)" style="fill: #185b8a"/>
    <path d="M 300.599797 272.932039 
L 310.302756 292.007345 
L 322.343647 290.279868 
z
" clip-path="url(#p5e1a0954de)" style="fill: #185b8a"/>
    <path d="M 346.326972 286.839041 
L 323.336403 279.846922 
L 322.343647 290.279868 
z
" clip-path="url(#p5e1a0954de)" style="fill: #185b8a"/>
    <path d="M 273.981548 297.218257 
L 287.419223 284.95786 
L 276.758526 276.297168 
z
" clip-path="url(#p5e1a0954de)" style="fill: #185b8a"/>
    <path d="M 310.302756 292.007345 
L 300.599797 272.932039 
L 298.228867 293.739555 
z
" clip-path="url(#p5e1a0954de)" style="fill: #185b8a"/>
    <path d="M 382.046555 282.193291 
L 392.785499 312.327627 
L 393.960429 277.894306 
z
" clip-path="url(#p5e1a0954de)" style="fill: #196192"/>
    <path d="M 392.785499 312.327627 
L 382.046555 282.193291 
L 370.161856 284.317905 
z
" clip-path="url(#p5e1a0954de)" style="fill: #185c8b"/>
    <path d="M 346.326972 286.839041 
L 369.519707 296.723424 
L 370.161856 284.317905 
z
" clip-path="url(#p5e1a0954de)" style="fill: #175a88"/>
    <path d="M 183.536009 243.62111 
L 191.621752 266.846737 
L 204.147244 275.394982 
z
" clip-path="url(#p5e1a0954de)" style="fill: #124669"/>
    <path d="M 392.785499 312.327627 
L 405.350851 290.724718 
L 393.960429 277.894306 
z
" clip-path="url(#p5e1a0954de)" style="fill: #196092"/>
    <path d="M 432.030275 192.287081 
L 446.578293 113.7543 
L 419.589709 206.093735 
z
" clip-path="url(#p5e1a0954de)" style="fill: #1f77b4"/>
    <path d="M 251.207591 290.110698 
L 273.981548 297.218257 
L 252.78803 279.680536 
z
" clip-path="url(#p5e1a0954de)" style="fill: #185b8a"/>
    <path d="M 214.51166 287.806213 
L 228.687255 283.082291 
L 204.147244 275.394982 
z
" clip-path="url(#p5e1a0954de)" style="fill: #144f77"/>
    <path d="M 369.519707 296.723424 
L 392.785499 312.327627 
L 370.161856 284.317905 
z
" clip-path="url(#p5e1a0954de)" style="fill: #16547f"/>
    <path d="M 251.207591 290.110698 
L 228.687255 283.082291 
L 249.614013 301.624976 
z
" clip-path="url(#p5e1a0954de)" style="fill: #185c8c"/>
    <path d="M 287.419223 284.95786 
L 273.981548 297.218257 
L 298.228867 293.739555 
z
" clip-path="url(#p5e1a0954de)" style="fill: #185b8a"/>
    <path d="M 333.444389 299.136339 
L 346.326972 286.839041 
L 322.343647 290.279868 
z
" clip-path="url(#p5e1a0954de)" style="fill: #185b8a"/>
    <path d="M 191.621752 266.846737 
L 183.536009 243.62111 
L 178.310672 238.762051 
z
" clip-path="url(#p5e1a0954de)" style="fill: #0d334d"/>
    <path d="M 369.519707 296.723424 
L 346.326972 286.839041 
L 368.91457 306.946364 
z
" clip-path="url(#p5e1a0954de)" style="fill: #175884"/>
    <path d="M 228.687255 283.082291 
L 237.368553 302.957807 
L 249.614013 301.624976 
z
" clip-path="url(#p5e1a0954de)" style="fill: #185a89"/>
    <path d="M 228.687255 283.082291 
L 214.51166 287.806213 
L 225.03796 302.088332 
z
" clip-path="url(#p5e1a0954de)" style="fill: #144d74"/>
    <path d="M 273.981548 297.218257 
L 251.207591 290.110698 
L 249.614013 301.624976 
z
" clip-path="url(#p5e1a0954de)" style="fill: #185c8c"/>
    <path d="M 237.368553 302.957807 
L 228.687255 283.082291 
L 225.03796 302.088332 
z
" clip-path="url(#p5e1a0954de)" style="fill: #165581"/>
    <path d="M 392.785499 312.327627 
L 369.519707 296.723424 
L 368.91457 306.946364 
z
" clip-path="url(#p5e1a0954de)" style="fill: #15517b"/>
    <path d="M 310.302756 292.007345 
L 320.307655 311.676239 
L 322.343647 290.279868 
z
" clip-path="url(#p5e1a0954de)" style="fill: #185b8a"/>
    <path d="M 183.536009 243.62111 
L 167.384368 208.100932 
L 178.310672 238.762051 
z
" clip-path="url(#p5e1a0954de)" style="fill: #0d314a"/>
    <path d="M 346.326972 286.839041 
L 333.444389 299.136339 
L 344.727229 306.145103 
z
" clip-path="url(#p5e1a0954de)" style="fill: #185d8d"/>
    <path d="M 273.981548 297.218257 
L 297.013434 304.406313 
L 298.228867 293.739555 
z
" clip-path="url(#p5e1a0954de)" style="fill: #185b8a"/>
    <path d="M 346.326972 286.839041 
L 356.850951 306.196719 
L 368.91457 306.946364 
z
" clip-path="url(#p5e1a0954de)" style="fill: #165681"/>
    <path d="M 320.307655 311.676239 
L 310.302756 292.007345 
L 298.228867 293.739555 
z
" clip-path="url(#p5e1a0954de)" style="fill: #185b8a"/>
    <path d="M 320.307655 311.676239 
L 333.444389 299.136339 
L 322.343647 290.279868 
z
" clip-path="url(#p5e1a0954de)" style="fill: #185b8a"/>
    <path d="M 356.850951 306.196719 
L 346.326972 286.839041 
L 344.727229 306.145103 
z
" clip-path="url(#p5e1a0954de)" style="fill: #175784"/>
    <path d="M 191.621752 266.846737 
L 199.673626 281.624158 
L 204.147244 275.394982 
z
" clip-path="url(#p5e1a0954de)" style="fill: #124669"/>
    <path d="M 199.673626 281.624158 
L 214.51166 287.806213 
L 204.147244 275.394982 
z
" clip-path="url(#p5e1a0954de)" style="fill: #124467"/>
    <path d="M 260.312362 312.555982 
L 273.981548 297.218257 
L 249.614013 301.624976 
z
" clip-path="url(#p5e1a0954de)" style="fill: #185c8b"/>
    <path d="M 297.013434 304.406313 
L 320.307655 311.676239 
L 298.228867 293.739555 
z
" clip-path="url(#p5e1a0954de)" style="fill: #185b8a"/>
    <path d="M 380.472625 315.66198 
L 392.785499 312.327627 
L 368.91457 306.946364 
z
" clip-path="url(#p5e1a0954de)" style="fill: #15517b"/>
    <path d="M 297.013434 304.406313 
L 273.981548 297.218257 
L 295.774567 313.274616 
z
" clip-path="url(#p5e1a0954de)" style="fill: #175987"/>
    <path d="M 333.444389 299.136339 
L 320.307655 311.676239 
L 344.727229 306.145103 
z
" clip-path="url(#p5e1a0954de)" style="fill: #185d8d"/>
    <path d="M 214.51166 287.806213 
L 199.673626 281.624158 
L 225.03796 302.088332 
z
" clip-path="url(#p5e1a0954de)" style="fill: #114365"/>
    <path d="M 237.368553 302.957807 
L 246.484294 333.856015 
L 249.614013 301.624976 
z
" clip-path="url(#p5e1a0954de)" style="fill: #175a88"/>
    <path d="M 199.673626 281.624158 
L 191.621752 266.846737 
L 178.310672 238.762051 
z
" clip-path="url(#p5e1a0954de)" style="fill: #0d334d"/>
    <path d="M 273.981548 297.218257 
L 260.312362 312.555982 
L 271.130366 321.236058 
z
" clip-path="url(#p5e1a0954de)" style="fill: #195f8f"/>
    <path d="M 246.484294 333.856015 
L 237.368553 302.957807 
L 225.03796 302.088332 
z
" clip-path="url(#p5e1a0954de)" style="fill: #165581"/>
    <path d="M 246.484294 333.856015 
L 260.312362 312.555982 
L 249.614013 301.624976 
z
" clip-path="url(#p5e1a0954de)" style="fill: #1a6294"/>
    <path d="M 273.981548 297.218257 
L 283.460089 316.900654 
L 295.774567 313.274616 
z
" clip-path="url(#p5e1a0954de)" style="fill: #195f90"/>
    <path d="M 320.307655 311.676239 
L 297.013434 304.406313 
L 295.774567 313.274616 
z
" clip-path="url(#p5e1a0954de)" style="fill: #175987"/>
    <path d="M 283.460089 316.900654 
L 273.981548 297.218257 
L 271.130366 321.236058 
z
" clip-path="url(#p5e1a0954de)" style="fill: #196192"/>
    <path d="M 199.673626 281.624158 
L 223.283351 317.103532 
L 225.03796 302.088332 
z
" clip-path="url(#p5e1a0954de)" style="fill: #124366"/>
    <path d="M 223.283351 317.103532 
L 246.484294 333.856015 
L 225.03796 302.088332 
z
" clip-path="url(#p5e1a0954de)" style="fill: #165581"/>
    <path d="M 320.307655 311.676239 
L 343.957312 311.994367 
L 344.727229 306.145103 
z
" clip-path="url(#p5e1a0954de)" style="fill: #185d8d"/>
    <path d="M 260.312362 312.555982 
L 246.484294 333.856015 
L 271.130366 321.236058 
z
" clip-path="url(#p5e1a0954de)" style="fill: #1a6498"/>
    <path d="M 356.850951 306.196719 
L 368.217666 300.080511 
L 368.91457 306.946364 
z
" clip-path="url(#p5e1a0954de)" style="fill: #165580"/>
    <path d="M 368.217666 300.080511 
L 356.850951 306.196719 
L 344.727229 306.145103 
z
" clip-path="url(#p5e1a0954de)" style="fill: #165682"/>
    <path d="M 368.217666 300.080511 
L 380.472625 315.66198 
L 368.91457 306.946364 
z
" clip-path="url(#p5e1a0954de)" style="fill: #114061"/>
    <path d="M 175.263005 226.694249 
L 199.673626 281.624158 
L 178.310672 238.762051 
z
" clip-path="url(#p5e1a0954de)" style="fill: #0d314a"/>
    <path d="M 306.922147 317.412412 
L 320.307655 311.676239 
L 295.774567 313.274616 
z
" clip-path="url(#p5e1a0954de)" style="fill: #175986"/>
    <path d="M 167.384368 208.100932 
L 149.62432 150.925022 
L 178.310672 238.762051 
z
" clip-path="url(#p5e1a0954de)" style="fill: #0c2e46"/>
    <path d="M 246.484294 333.856015 
L 269.655507 331.988147 
L 271.130366 321.236058 
z
" clip-path="url(#p5e1a0954de)" style="fill: #1a6498"/>
    <path d="M 343.957312 311.994367 
L 368.217666 300.080511 
L 344.727229 306.145103 
z
" clip-path="url(#p5e1a0954de)" style="fill: #1b689d"/>
    <path d="M 343.957312 311.994367 
L 320.307655 311.676239 
L 343.41918 297.991648 
z
" clip-path="url(#p5e1a0954de)" style="fill: #13496f"/>
    <path d="M 283.460089 316.900654 
L 293.183926 310.985839 
L 295.774567 313.274616 
z
" clip-path="url(#p5e1a0954de)" style="fill: #185d8d"/>
    <path d="M 149.62432 150.925022 
L 175.263005 226.694249 
L 178.310672 238.762051 
z
" clip-path="url(#p5e1a0954de)" style="fill: #0c2e46"/>
    <path d="M 293.183926 310.985839 
L 283.460089 316.900654 
L 271.130366 321.236058 
z
" clip-path="url(#p5e1a0954de)" style="fill: #195f8f"/>
    <path d="M 320.307655 311.676239 
L 306.922147 317.412412 
L 318.367091 301.616446 
z
" clip-path="url(#p5e1a0954de)" style="fill: #1b669a"/>
    <path d="M 293.183926 310.985839 
L 306.922147 317.412412 
L 295.774567 313.274616 
z
" clip-path="url(#p5e1a0954de)" style="fill: #144c73"/>
    <path d="M 269.655507 331.988147 
L 293.183926 310.985839 
L 271.130366 321.236058 
z
" clip-path="url(#p5e1a0954de)" style="fill: #1d70a9"/>
    <path d="M 320.307655 311.676239 
L 330.938086 296.712069 
L 343.41918 297.991648 
z
" clip-path="url(#p5e1a0954de)" style="fill: #16537e"/>
    <path d="M 368.217666 300.080511 
L 343.957312 311.994367 
L 343.41918 297.991648 
z
" clip-path="url(#p5e1a0954de)" style="fill: #16537e"/>
    <path d="M 330.938086 296.712069 
L 320.307655 311.676239 
L 318.367091 301.616446 
z
" clip-path="url(#p5e1a0954de)" style="fill: #195e8f"/>
    <path d="M 306.922147 317.412412 
L 293.183926 310.985839 
L 318.367091 301.616446 
z
" clip-path="url(#p5e1a0954de)" style="fill: #185c8c"/>
    <path d="M 355.815605 264.25163 
L 368.217666 300.080511 
L 343.41918 297.991648 
z
" clip-path="url(#p5e1a0954de)" style="fill: #15517b"/>
    <path d="M 293.183926 310.985839 
L 317.486733 269.657764 
L 318.367091 301.616446 
z
" clip-path="url(#p5e1a0954de)" style="fill: #175885"/>
    <path d="M 330.938086 296.712069 
L 343.037978 206.01533 
L 343.41918 297.991648 
z
" clip-path="url(#p5e1a0954de)" style="fill: #15517a"/>
    <path d="M 343.037978 206.01533 
L 330.938086 296.712069 
L 318.367091 301.616446 
z
" clip-path="url(#p5e1a0954de)" style="fill: #175783"/>
    <path d="M 343.037978 206.01533 
L 355.815605 264.25163 
L 343.41918 297.991648 
z
" clip-path="url(#p5e1a0954de)" style="fill: #13476c"/>
    <path d="M 317.486733 269.657764 
L 343.037978 206.01533 
L 318.367091 301.616446 
z
" clip-path="url(#p5e1a0954de)" style="fill: #196092"/>
   </g>
   <g id="text_37">
    <!-- 2D p-Laplace Solution (L=3, p=1.0) -->
    <g transform="translate(188.681562 19.44) scale(0.12 -0.12)">
     <defs>
      <path id="DejaVuSans-44" d="M 1259 4147 
L 1259 519 
L 2022 519 
Q 2988 519 3436 956 
Q 3884 1394 3884 2338 
Q 3884 3275 3436 3711 
Q 2988 4147 2022 4147 
L 1259 4147 
z
M 628 4666 
L 1925 4666 
Q 3281 4666 3915 4102 
Q 4550 3538 4550 2338 
Q 4550 1131 3912 565 
Q 3275 0 1925 0 
L 628 0 
L 628 4666 
z
" transform="scale(0.015625)"/>
      <path id="DejaVuSans-20" transform="scale(0.015625)"/>
      <path id="DejaVuSans-70" d="M 1159 525 
L 1159 -1331 
L 581 -1331 
L 581 3500 
L 1159 3500 
L 1159 2969 
Q 1341 3281 1617 3432 
Q 1894 3584 2278 3584 
Q 2916 3584 3314 3078 
Q 3713 2572 3713 1747 
Q 3713 922 3314 415 
Q 2916 -91 2278 -91 
Q 1894 -91 1617 61 
Q 1341 213 1159 525 
z
M 3116 1747 
Q 3116 2381 2855 2742 
Q 2594 3103 2138 3103 
Q 1681 3103 1420 2742 
Q 1159 2381 1159 1747 
Q 1159 1113 1420 752 
Q 1681 391 2138 391 
Q 2594 391 2855 752 
Q 3116 1113 3116 1747 
z
" transform="scale(0.015625)"/>
      <path id="DejaVuSans-2d" d="M 313 2009 
L 1997 2009 
L 1997 1497 
L 313 1497 
L 313 2009 
z
" transform="scale(0.015625)"/>
      <path id="DejaVuSans-4c" d="M 628 4666 
L 1259 4666 
L 1259 531 
L 3531 531 
L 3531 0 
L 628 0 
L 628 4666 
z
" transform="scale(0.015625)"/>
      <path id="DejaVuSans-61" d="M 2194 1759 
Q 1497 1759 1228 1600 
Q 959 1441 959 1056 
Q 959 750 1161 570 
Q 1363 391 1709 391 
Q 2188 391 2477 730 
Q 2766 1069 2766 1631 
L 2766 1759 
L 2194 1759 
z
M 3341 1997 
L 3341 0 
L 2766 0 
L 2766 531 
Q 2569 213 2275 61 
Q 1981 -91 1556 -91 
Q 1019 -91 701 211 
Q 384 513 384 1019 
Q 384 1609 779 1909 
Q 1175 2209 1959 2209 
L 2766 2209 
L 2766 2266 
Q 2766 2663 2505 2880 
Q 2244 3097 1772 3097 
Q 1472 3097 1187 3025 
Q 903 2953 641 2809 
L 641 3341 
Q 956 3463 1253 3523 
Q 1550 3584 1831 3584 
Q 2591 3584 2966 3190 
Q 3341 2797 3341 1997 
z
" transform="scale(0.015625)"/>
      <path id="DejaVuSans-6c" d="M 603 4863 
L 1178 4863 
L 1178 0 
L 603 0 
L 603 4863 
z
" transform="scale(0.015625)"/>
      <path id="DejaVuSans-63" d="M 3122 3366 
L 3122 2828 
Q 2878 2963 2633 3030 
Q 2388 3097 2138 3097 
Q 1578 3097 1268 2742 
Q 959 2388 959 1747 
Q 959 1106 1268 751 
Q 1578 397 2138 397 
Q 2388 397 2633 464 
Q 2878 531 3122 666 
L 3122 134 
Q 2881 22 2623 -34 
Q 2366 -91 2075 -91 
Q 1284 -91 818 406 
Q 353 903 353 1747 
Q 353 2603 823 3093 
Q 1294 3584 2113 3584 
Q 2378 3584 2631 3529 
Q 2884 3475 3122 3366 
z
" transform="scale(0.015625)"/>
      <path id="DejaVuSans-65" d="M 3597 1894 
L 3597 1613 
L 953 1613 
Q 991 1019 1311 708 
Q 1631 397 2203 397 
Q 2534 397 2845 478 
Q 3156 559 3463 722 
L 3463 178 
Q 3153 47 2828 -22 
Q 2503 -91 2169 -91 
Q 1331 -91 842 396 
Q 353 884 353 1716 
Q 353 2575 817 3079 
Q 1281 3584 2069 3584 
Q 2775 3584 3186 3129 
Q 3597 2675 3597 1894 
z
M 3022 2063 
Q 3016 2534 2758 2815 
Q 2500 3097 2075 3097 
Q 1594 3097 1305 2825 
Q 1016 2553 972 2059 
L 3022 2063 
z
" transform="scale(0.015625)"/>
      <path id="DejaVuSans-53" d="M 3425 4513 
L 3425 3897 
Q 3066 4069 2747 4153 
Q 2428 4238 2131 4238 
Q 1616 4238 1336 4038 
Q 1056 3838 1056 3469 
Q 1056 3159 1242 3001 
Q 1428 2844 1947 2747 
L 2328 2669 
Q 3034 2534 3370 2195 
Q 3706 1856 3706 1288 
Q 3706 609 3251 259 
Q 2797 -91 1919 -91 
Q 1588 -91 1214 -16 
Q 841 59 441 206 
L 441 856 
Q 825 641 1194 531 
Q 1563 422 1919 422 
Q 2459 422 2753 634 
Q 3047 847 3047 1241 
Q 3047 1584 2836 1778 
Q 2625 1972 2144 2069 
L 1759 2144 
Q 1053 2284 737 2584 
Q 422 2884 422 3419 
Q 422 4038 858 4394 
Q 1294 4750 2059 4750 
Q 2388 4750 2728 4690 
Q 3069 4631 3425 4513 
z
" transform="scale(0.015625)"/>
      <path id="DejaVuSans-6f" d="M 1959 3097 
Q 1497 3097 1228 2736 
Q 959 2375 959 1747 
Q 959 1119 1226 758 
Q 1494 397 1959 397 
Q 2419 397 2687 759 
Q 2956 1122 2956 1747 
Q 2956 2369 2687 2733 
Q 2419 3097 1959 3097 
z
M 1959 3584 
Q 2709 3584 3137 3096 
Q 3566 2609 3566 1747 
Q 3566 888 3137 398 
Q 2709 -91 1959 -91 
Q 1206 -91 779 398 
Q 353 888 353 1747 
Q 353 2609 779 3096 
Q 1206 3584 1959 3584 
z
" transform="scale(0.015625)"/>
      <path id="DejaVuSans-75" d="M 544 1381 
L 544 3500 
L 1119 3500 
L 1119 1403 
Q 1119 906 1312 657 
Q 1506 409 1894 409 
Q 2359 409 2629 706 
Q 2900 1003 2900 1516 
L 2900 3500 
L 3475 3500 
L 3475 0 
L 2900 0 
L 2900 538 
Q 2691 219 2414 64 
Q 2138 -91 1772 -91 
Q 1169 -91 856 284 
Q 544 659 544 1381 
z
M 1991 3584 
L 1991 3584 
z
" transform="scale(0.015625)"/>
      <path id="DejaVuSans-74" d="M 1172 4494 
L 1172 3500 
L 2356 3500 
L 2356 3053 
L 1172 3053 
L 1172 1153 
Q 1172 725 1289 603 
Q 1406 481 1766 481 
L 2356 481 
L 2356 0 
L 1766 0 
Q 1100 0 847 248 
Q 594 497 594 1153 
L 594 3053 
L 172 3053 
L 172 3500 
L 594 3500 
L 594 4494 
L 1172 4494 
z
" transform="scale(0.015625)"/>
      <path id="DejaVuSans-69" d="M 603 3500 
L 1178 3500 
L 1178 0 
L 603 0 
L 603 3500 
z
M 603 4863 
L 1178 4863 
L 1178 4134 
L 603 4134 
L 603 4863 
z
" transform="scale(0.015625)"/>
      <path id="DejaVuSans-6e" d="M 3513 2113 
L 3513 0 
L 2938 0 
L 2938 2094 
Q 2938 2591 2744 2837 
Q 2550 3084 2163 3084 
Q 1697 3084 1428 2787 
Q 1159 2491 1159 1978 
L 1159 0 
L 581 0 
L 581 3500 
L 1159 3500 
L 1159 2956 
Q 1366 3272 1645 3428 
Q 1925 3584 2291 3584 
Q 2894 3584 3203 3211 
Q 3513 2838 3513 2113 
z
" transform="scale(0.015625)"/>
      <path id="DejaVuSans-28" d="M 1984 4856 
Q 1566 4138 1362 3434 
Q 1159 2731 1159 2009 
Q 1159 1288 1364 580 
Q 1569 -128 1984 -844 
L 1484 -844 
Q 1016 -109 783 600 
Q 550 1309 550 2009 
Q 550 2706 781 3412 
Q 1013 4119 1484 4856 
L 1984 4856 
z
" transform="scale(0.015625)"/>
      <path id="DejaVuSans-3d" d="M 678 2906 
L 4684 2906 
L 4684 2381 
L 678 2381 
L 678 2906 
z
M 678 1631 
L 4684 1631 
L 4684 1100 
L 678 1100 
L 678 1631 
z
" transform="scale(0.015625)"/>
      <path id="DejaVuSans-33" d="M 2597 2516 
Q 3050 2419 3304 2112 
Q 3559 1806 3559 1356 
Q 3559 666 3084 287 
Q 2609 -91 1734 -91 
Q 1441 -91 1130 -33 
Q 819 25 488 141 
L 488 750 
Q 750 597 1062 519 
Q 1375 441 1716 441 
Q 2309 441 2620 675 
Q 2931 909 2931 1356 
Q 2931 1769 2642 2001 
Q 2353 2234 1838 2234 
L 1294 2234 
L 1294 2753 
L 1863 2753 
Q 2328 2753 2575 2939 
Q 2822 3125 2822 3475 
Q 2822 3834 2567 4026 
Q 2313 4219 1838 4219 
Q 1578 4219 1281 4162 
Q 984 4106 628 3988 
L 628 4550 
Q 988 4650 1302 4700 
Q 1616 4750 1894 4750 
Q 2613 4750 3031 4423 
Q 3450 4097 3450 3541 
Q 3450 3153 3228 2886 
Q 3006 2619 2597 2516 
z
" transform="scale(0.015625)"/>
      <path id="DejaVuSans-2c" d="M 750 794 
L 1409 794 
L 1409 256 
L 897 -744 
L 494 -744 
L 750 256 
L 750 794 
z
" transform="scale(0.015625)"/>
      <path id="DejaVuSans-29" d="M 513 4856 
L 1013 4856 
Q 1481 4119 1714 3412 
Q 1947 2706 1947 2009 
Q 1947 1309 1714 600 
Q 1481 -109 1013 -844 
L 513 -844 
Q 928 -128 1133 580 
Q 1338 1288 1338 2009 
Q 1338 2731 1133 3434 
Q 928 4138 513 4856 
z
" transform="scale(0.015625)"/>
     </defs>
     <use xlink:href="#DejaVuSans-32"/>
     <use xlink:href="#DejaVuSans-44" transform="translate(63.623047 0)"/>
     <use xlink:href="#DejaVuSans-20" transform="translate(140.625 0)"/>
     <use xlink:href="#DejaVuSans-70" transform="translate(172.412109 0)"/>
     <use xlink:href="#DejaVuSans-2d" transform="translate(235.888672 0)"/>
     <use xlink:href="#DejaVuSans-4c" transform="translate(271.972656 0)"/>
     <use xlink:href="#DejaVuSans-61" transform="translate(327.685547 0)"/>
     <use xlink:href="#DejaVuSans-70" transform="translate(388.964844 0)"/>
     <use xlink:href="#DejaVuSans-6c" transform="translate(452.441406 0)"/>
     <use xlink:href="#DejaVuSans-61" transform="translate(480.224609 0)"/>
     <use xlink:href="#DejaVuSans-63" transform="translate(541.503906 0)"/>
     <use xlink:href="#DejaVuSans-65" transform="translate(596.484375 0)"/>
     <use xlink:href="#DejaVuSans-20" transform="translate(658.007812 0)"/>
     <use xlink:href="#DejaVuSans-53" transform="translate(689.794922 0)"/>
     <use xlink:href="#DejaVuSans-6f" transform="translate(753.271484 0)"/>
     <use xlink:href="#DejaVuSans-6c" transform="translate(814.453125 0)"/>
     <use xlink:href="#DejaVuSans-75" transform="translate(842.236328 0)"/>
     <use xlink:href="#DejaVuSans-74" transform="translate(905.615234 0)"/>
     <use xlink:href="#DejaVuSans-69" transform="translate(944.824219 0)"/>
     <use xlink:href="#DejaVuSans-6f" transform="translate(972.607422 0)"/>
     <use xlink:href="#DejaVuSans-6e" transform="translate(1033.789062 0)"/>
     <use xlink:href="#DejaVuSans-20" transform="translate(1097.167969 0)"/>
     <use xlink:href="#DejaVuSans-28" transform="translate(1128.955078 0)"/>
     <use xlink:href="#DejaVuSans-4c" transform="translate(1167.96875 0)"/>
     <use xlink:href="#DejaVuSans-3d" transform="translate(1223.681641 0)"/>
     <use xlink:href="#DejaVuSans-33" transform="translate(1307.470703 0)"/>
     <use xlink:href="#DejaVuSans-2c" transform="translate(1371.09375 0)"/>
     <use xlink:href="#DejaVuSans-20" transform="translate(1402.880859 0)"/>
     <use xlink:href="#DejaVuSans-70" transform="translate(1434.667969 0)"/>
     <use xlink:href="#DejaVuSans-3d" transform="translate(1498.144531 0)"/>
     <use xlink:href="#DejaVuSans-31" transform="translate(1581.933594 0)"/>
     <use xlink:href="#DejaVuSans-2e" transform="translate(1645.556641 0)"/>
     <use xlink:href="#DejaVuSans-30" transform="translate(1677.34375 0)"/>
     <use xlink:href="#DejaVuSans-29" transform="translate(1740.966797 0)"/>
    </g>
   </g>
  </g>
 </g>
 <defs>
  <clipPath id="p5e1a0954de">
   <rect x="106.1425" y="25.44" width="378.68" height="378.68"/>
  </clipPath>
 </defs>
</svg>
