<?xml version="1.0" encoding="utf-8" standalone="no"?>
<!DOCTYPE svg PUBLIC "-//W3C//DTD SVG 1.1//EN"
  "http://www.w3.org/Graphics/SVG/1.1/DTD/svg11.dtd">
<svg xmlns:xlink="http://www.w3.org/1999/xlink" width="576pt" height="432pt" viewBox="0 0 576 432" xmlns="http://www.w3.org/2000/svg" version="1.1">
 <metadata>
  <rdf:RDF xmlns:dc="http://purl.org/dc/elements/1.1/" xmlns:cc="http://creativecommons.org/ns#" xmlns:rdf="http://www.w3.org/1999/02/22-rdf-syntax-ns#">
   <cc:Work>
    <dc:type rdf:resource="http://purl.org/dc/dcmitype/StillImage"/>
    <dc:date>2025-11-20T20:43:04.259832</dc:date>
    <dc:format>image/svg+xml</dc:format>
    <dc:creator>
     <cc:Agent>
      <dc:title>Matplotlib v3.10.5, https://matplotlib.org/</dc:title>
     </cc:Agent>
    </dc:creator>
   </cc:Work>
  </rdf:RDF>
 </metadata>
 <defs>
  <style type="text/css">*{stroke-linejoin: round; stroke-linecap: butt}</style>
 </defs>
 <g id="figure_1">
  <g id="patch_1">
   <path d="M 0 432 
L 576 432 
L 576 0 
L 0 0 
z
" style="fill: #ffffff"/>
  </g>
  <g id="axes_1">
   <g id="patch_2">
    <path d="M 10.8 421.2 
L 565.2 421.2 
L 565.2 32.4 
L 10.8 32.4 
z
" style="fill: #ffffff"/>
   </g>
   <g id="matplotlib.axis_1"/>
   <g id="matplotlib.axis_2"/>
   <g id="patch_3">
    <path d="M 10.8 421.2 
L 10.8 32.4 
" style="fill: none; stroke: #000000; stroke-width: 0.8; stroke-linejoin: miter; stroke-linecap: square"/>
   </g>
   <g id="patch_4">
    <path d="M 565.2 421.2 
L 565.2 32.4 
" style="fill: none; stroke: #000000; stroke-width: 0.8; stroke-linejoin: miter; stroke-linecap: square"/>
   </g>
   <g id="patch_5">
    <path d="M 10.8 421.2 
L 565.2 421.2 
" style="fill: none; stroke: #000000; stroke-width: 0.8; stroke-linejoin: miter; stroke-linecap: square"/>
   </g>
   <g id="patch_6">
    <path d="M 10.8 32.4 
L 565.2 32.4 
" style="fill: none; stroke: #000000; stroke-width: 0.8; stroke-linejoin: miter; stroke-linecap: square"/>
   </g>
  </g>
  <g id="patch_7">
   <path d="M 93.6 421.2 
L 482.4 421.2 
L 482.4 32.4 
L 93.6 32.4 
z
" style="fill: #ffffff"/>
  </g>
  <g id="pane3d_1">
   <g id="patch_8">
    <path d="M 122.957081 325.33438 
L 251.351539 217.7116 
L 249.566733 62.500311 
L 115.027939 160.680596 
" style="fill: #f2f2f2; opacity: 0.5; stroke: #f2f2f2; stroke-linejoin: miter"/>
   </g>
  </g>
  <g id="pane3d_2">
   <g id="patch_9">
    <path d="M 251.351539 217.7116 
L 457.378832 277.5956 
L 464.73122 117.038237 
L 249.566733 62.500311 
" style="fill: #e6e6e6; opacity: 0.5; stroke: #e6e6e6; stroke-linejoin: miter"/>
   </g>
  </g>
  <g id="pane3d_3">
   <g id="patch_10">
    <path d="M 122.957081 325.33438 
L 341.356075 396.663491 
L 457.378832 277.5956 
L 251.351539 217.7116 
" style="fill: #ececec; opacity: 0.5; stroke: #ececec; stroke-linejoin: miter"/>
   </g>
  </g>
  <g id="grid3d_1">
   <g id="Line3DCollection_1">
    <path d="M 136.18447 329.654445 
L 263.881488 221.353561 
L 262.626458 65.810571 
" style="fill: none; stroke: #b0b0b0; stroke-width: 0.8"/>
    <path d="M 159.063003 337.126574 
L 285.537863 227.648215 
L 285.206382 71.533923 
" style="fill: none; stroke: #b0b0b0; stroke-width: 0.8"/>
    <path d="M 182.201733 344.683683 
L 307.420141 234.008529 
L 308.032016 77.319556 
" style="fill: none; stroke: #b0b0b0; stroke-width: 0.8"/>
    <path d="M 205.605126 352.327231 
L 329.531875 240.435537 
L 331.107393 83.168492 
" style="fill: none; stroke: #b0b0b0; stroke-width: 0.8"/>
    <path d="M 229.277749 360.05871 
L 351.876694 246.930293 
L 354.436634 89.081774 
" style="fill: none; stroke: #b0b0b0; stroke-width: 0.8"/>
    <path d="M 253.224274 367.879645 
L 374.458301 253.493875 
L 378.023952 95.060472 
" style="fill: none; stroke: #b0b0b0; stroke-width: 0.8"/>
    <path d="M 277.449482 375.791598 
L 397.280482 260.127382 
L 401.873652 101.105676 
" style="fill: none; stroke: #b0b0b0; stroke-width: 0.8"/>
    <path d="M 301.958267 383.796167 
L 420.3471 266.831938 
L 425.990138 107.218502 
" style="fill: none; stroke: #b0b0b0; stroke-width: 0.8"/>
    <path d="M 326.755638 391.894988 
L 443.662106 273.608689 
L 450.377911 113.400091 
" style="fill: none; stroke: #b0b0b0; stroke-width: 0.8"/>
   </g>
  </g>
  <g id="grid3d_2">
   <g id="Line3DCollection_2">
    <path d="M 124.33163 153.891186 
L 131.804544 317.918261 
L 349.383952 388.424914 
" style="fill: none; stroke: #b0b0b0; stroke-width: 0.8"/>
    <path d="M 140.028339 142.436442 
L 146.74205 305.397348 
L 362.926617 374.526808 
" style="fill: none; stroke: #b0b0b0; stroke-width: 0.8"/>
    <path d="M 155.414287 131.208478 
L 161.39666 293.113563 
L 376.199273 360.905798 
" style="fill: none; stroke: #b0b0b0; stroke-width: 0.8"/>
    <path d="M 170.498613 120.200624 
L 175.776336 281.060234 
L 389.209913 347.553681 
" style="fill: none; stroke: #b0b0b0; stroke-width: 0.8"/>
    <path d="M 185.290099 109.406471 
L 189.888743 269.230934 
L 401.966221 334.462571 
" style="fill: none; stroke: #b0b0b0; stroke-width: 0.8"/>
    <path d="M 199.797192 98.819855 
L 203.741263 257.619477 
L 414.475582 321.624889 
" style="fill: none; stroke: #b0b0b0; stroke-width: 0.8"/>
    <path d="M 214.028015 88.434849 
L 217.341011 246.219898 
L 426.745098 309.033347 
" style="fill: none; stroke: #b0b0b0; stroke-width: 0.8"/>
    <path d="M 227.990386 78.245747 
L 230.694843 235.026452 
L 438.781602 296.680933 
" style="fill: none; stroke: #b0b0b0; stroke-width: 0.8"/>
    <path d="M 241.691829 68.247058 
L 243.809368 224.033597 
L 450.591669 284.560899 
" style="fill: none; stroke: #b0b0b0; stroke-width: 0.8"/>
   </g>
  </g>
  <g id="grid3d_3">
   <g id="Line3DCollection_3">
    <path d="M 457.519696 274.519498 
L 251.317273 214.731759 
L 122.805419 322.185009 
" style="fill: none; stroke: #b0b0b0; stroke-width: 0.8"/>
    <path d="M 458.884391 244.718032 
L 250.985448 185.875366 
L 121.335595 291.663168 
" style="fill: none; stroke: #b0b0b0; stroke-width: 0.8"/>
    <path d="M 460.271952 214.417246 
L 250.648329 156.558678 
L 119.840202 260.610354 
" style="fill: none; stroke: #b0b0b0; stroke-width: 0.8"/>
    <path d="M 461.682958 183.604482 
L 250.30579 126.770592 
L 118.318565 229.012587 
" style="fill: none; stroke: #b0b0b0; stroke-width: 0.8"/>
    <path d="M 463.118008 152.266657 
L 249.957698 96.499646 
L 116.769989 196.855396 
" style="fill: none; stroke: #b0b0b0; stroke-width: 0.8"/>
    <path d="M 464.577722 120.390232 
L 249.603918 65.734005 
L 115.193751 164.123793 
" style="fill: none; stroke: #b0b0b0; stroke-width: 0.8"/>
   </g>
  </g>
  <g id="axis3d_1">
   <g id="line2d_1">
    <path d="M 122.957081 325.33438 
L 341.356075 396.663491 
" style="fill: none; stroke: #000000; stroke-width: 0.8; stroke-linecap: square"/>
   </g>
   <g id="xtick_1">
    <g id="line2d_2">
     <path d="M 137.296449 328.711367 
L 133.955742 331.544648 
" style="fill: none; stroke: #000000; stroke-width: 0.8; stroke-linecap: square"/>
    </g>
    <g id="text_1">
     <!-- −1.00 -->
     <g transform="translate(113.341586 352.945187) scale(0.1 -0.1)">
      <defs>
       <path id="DejaVuSans-2212" d="M 678 2272 
L 4684 2272 
L 4684 1741 
L 678 1741 
L 678 2272 
z
" transform="scale(0.015625)"/>
       <path id="DejaVuSans-31" d="M 794 531 
L 1825 531 
L 1825 4091 
L 703 3866 
L 703 4441 
L 1819 4666 
L 2450 4666 
L 2450 531 
L 3481 531 
L 3481 0 
L 794 0 
L 794 531 
z
" transform="scale(0.015625)"/>
       <path id="DejaVuSans-2e" d="M 684 794 
L 1344 794 
L 1344 0 
L 684 0 
L 684 794 
z
" transform="scale(0.015625)"/>
       <path id="DejaVuSans-30" d="M 2034 4250 
Q 1547 4250 1301 3770 
Q 1056 3291 1056 2328 
Q 1056 1369 1301 889 
Q 1547 409 2034 409 
Q 2525 409 2770 889 
Q 3016 1369 3016 2328 
Q 3016 3291 2770 3770 
Q 2525 4250 2034 4250 
z
M 2034 4750 
Q 2819 4750 3233 4129 
Q 3647 3509 3647 2328 
Q 3647 1150 3233 529 
Q 2819 -91 2034 -91 
Q 1250 -91 836 529 
Q 422 1150 422 2328 
Q 422 3509 836 4129 
Q 1250 4750 2034 4750 
z
" transform="scale(0.015625)"/>
      </defs>
      <use xlink:href="#DejaVuSans-2212"/>
      <use xlink:href="#DejaVuSans-31" transform="translate(83.789062 0)"/>
      <use xlink:href="#DejaVuSans-2e" transform="translate(147.412109 0)"/>
      <use xlink:href="#DejaVuSans-30" transform="translate(179.199219 0)"/>
      <use xlink:href="#DejaVuSans-30" transform="translate(242.822266 0)"/>
     </g>
    </g>
   </g>
   <g id="xtick_2">
    <g id="line2d_3">
     <path d="M 160.164844 336.172805 
L 156.854564 339.038228 
" style="fill: none; stroke: #000000; stroke-width: 0.8; stroke-linecap: square"/>
    </g>
    <g id="text_2">
     <!-- −0.75 -->
     <g transform="translate(136.235958 360.525369) scale(0.1 -0.1)">
      <defs>
       <path id="DejaVuSans-37" d="M 525 4666 
L 3525 4666 
L 3525 4397 
L 1831 0 
L 1172 0 
L 2766 4134 
L 525 4134 
L 525 4666 
z
" transform="scale(0.015625)"/>
       <path id="DejaVuSans-35" d="M 691 4666 
L 3169 4666 
L 3169 4134 
L 1269 4134 
L 1269 2991 
Q 1406 3038 1543 3061 
Q 1681 3084 1819 3084 
Q 2600 3084 3056 2656 
Q 3513 2228 3513 1497 
Q 3513 744 3044 326 
Q 2575 -91 1722 -91 
Q 1428 -91 1123 -41 
Q 819 9 494 109 
L 494 744 
Q 775 591 1075 516 
Q 1375 441 1709 441 
Q 2250 441 2565 725 
Q 2881 1009 2881 1497 
Q 2881 1984 2565 2268 
Q 2250 2553 1709 2553 
Q 1456 2553 1204 2497 
Q 953 2441 691 2322 
L 691 4666 
z
" transform="scale(0.015625)"/>
      </defs>
      <use xlink:href="#DejaVuSans-2212"/>
      <use xlink:href="#DejaVuSans-30" transform="translate(83.789062 0)"/>
      <use xlink:href="#DejaVuSans-2e" transform="translate(147.412109 0)"/>
      <use xlink:href="#DejaVuSans-37" transform="translate(179.199219 0)"/>
      <use xlink:href="#DejaVuSans-35" transform="translate(242.822266 0)"/>
     </g>
    </g>
   </g>
   <g id="xtick_3">
    <g id="line2d_4">
     <path d="M 183.293135 343.71904 
L 180.014192 346.617157 
" style="fill: none; stroke: #000000; stroke-width: 0.8; stroke-linecap: square"/>
    </g>
    <g id="text_3">
     <!-- −0.50 -->
     <g transform="translate(159.391377 368.191982) scale(0.1 -0.1)">
      <use xlink:href="#DejaVuSans-2212"/>
      <use xlink:href="#DejaVuSans-30" transform="translate(83.789062 0)"/>
      <use xlink:href="#DejaVuSans-2e" transform="translate(147.412109 0)"/>
      <use xlink:href="#DejaVuSans-35" transform="translate(179.199219 0)"/>
      <use xlink:href="#DejaVuSans-30" transform="translate(242.822266 0)"/>
     </g>
    </g>
   </g>
   <g id="xtick_4">
    <g id="line2d_5">
     <path d="M 206.685778 351.351527 
L 203.439107 354.282899 
" style="fill: none; stroke: #000000; stroke-width: 0.8; stroke-linecap: square"/>
    </g>
    <g id="text_4">
     <!-- −0.25 -->
     <g transform="translate(182.812335 375.946513) scale(0.1 -0.1)">
      <defs>
       <path id="DejaVuSans-32" d="M 1228 531 
L 3431 531 
L 3431 0 
L 469 0 
L 469 531 
Q 828 903 1448 1529 
Q 2069 2156 2228 2338 
Q 2531 2678 2651 2914 
Q 2772 3150 2772 3378 
Q 2772 3750 2511 3984 
Q 2250 4219 1831 4219 
Q 1534 4219 1204 4116 
Q 875 4013 500 3803 
L 500 4441 
Q 881 4594 1212 4672 
Q 1544 4750 1819 4750 
Q 2544 4750 2975 4387 
Q 3406 4025 3406 3419 
Q 3406 3131 3298 2873 
Q 3191 2616 2906 2266 
Q 2828 2175 2409 1742 
Q 1991 1309 1228 531 
z
" transform="scale(0.015625)"/>
      </defs>
      <use xlink:href="#DejaVuSans-2212"/>
      <use xlink:href="#DejaVuSans-30" transform="translate(83.789062 0)"/>
      <use xlink:href="#DejaVuSans-2e" transform="translate(147.412109 0)"/>
      <use xlink:href="#DejaVuSans-32" transform="translate(179.199219 0)"/>
      <use xlink:href="#DejaVuSans-35" transform="translate(242.822266 0)"/>
     </g>
    </g>
   </g>
   <g id="xtick_5">
    <g id="line2d_6">
     <path d="M 230.347329 359.071753 
L 227.133893 362.036957 
" style="fill: none; stroke: #000000; stroke-width: 0.8; stroke-linecap: square"/>
    </g>
    <g id="text_5">
     <!-- 0.00 -->
     <g transform="translate(210.693268 383.790483) scale(0.1 -0.1)">
      <use xlink:href="#DejaVuSans-30"/>
      <use xlink:href="#DejaVuSans-2e" transform="translate(63.623047 0)"/>
      <use xlink:href="#DejaVuSans-30" transform="translate(95.410156 0)"/>
      <use xlink:href="#DejaVuSans-30" transform="translate(159.033203 0)"/>
     </g>
    </g>
   </g>
   <g id="xtick_6">
    <g id="line2d_7">
     <path d="M 254.282453 366.881239 
L 251.103242 369.880864 
" style="fill: none; stroke: #000000; stroke-width: 0.8; stroke-linecap: square"/>
    </g>
    <g id="text_6">
     <!-- 0.25 -->
     <g transform="translate(234.65919 391.725448) scale(0.1 -0.1)">
      <use xlink:href="#DejaVuSans-30"/>
      <use xlink:href="#DejaVuSans-2e" transform="translate(63.623047 0)"/>
      <use xlink:href="#DejaVuSans-32" transform="translate(95.410156 0)"/>
      <use xlink:href="#DejaVuSans-35" transform="translate(159.033203 0)"/>
     </g>
    </g>
   </g>
   <g id="xtick_7">
    <g id="line2d_8">
     <path d="M 278.495923 374.781544 
L 275.351952 377.816192 
" style="fill: none; stroke: #000000; stroke-width: 0.8; stroke-linecap: square"/>
    </g>
    <g id="text_7">
     <!-- 0.50 -->
     <g transform="translate(258.904755 399.753001) scale(0.1 -0.1)">
      <use xlink:href="#DejaVuSans-30"/>
      <use xlink:href="#DejaVuSans-2e" transform="translate(63.623047 0)"/>
      <use xlink:href="#DejaVuSans-35" transform="translate(95.410156 0)"/>
      <use xlink:href="#DejaVuSans-30" transform="translate(159.033203 0)"/>
     </g>
    </g>
   </g>
   <g id="xtick_8">
    <g id="line2d_9">
     <path d="M 302.992622 382.774259 
L 299.884937 385.844548 
" style="fill: none; stroke: #000000; stroke-width: 0.8; stroke-linecap: square"/>
    </g>
    <g id="text_8">
     <!-- 0.75 -->
     <g transform="translate(283.434886 407.874773) scale(0.1 -0.1)">
      <use xlink:href="#DejaVuSans-30"/>
      <use xlink:href="#DejaVuSans-2e" transform="translate(63.623047 0)"/>
      <use xlink:href="#DejaVuSans-37" transform="translate(95.410156 0)"/>
      <use xlink:href="#DejaVuSans-35" transform="translate(159.033203 0)"/>
     </g>
    </g>
   </g>
   <g id="xtick_9">
    <g id="line2d_10">
     <path d="M 327.777548 390.861017 
L 324.707226 393.967577 
" style="fill: none; stroke: #000000; stroke-width: 0.8; stroke-linecap: square"/>
    </g>
    <g id="text_9">
     <!-- 1.00 -->
     <g transform="translate(308.254623 416.092431) scale(0.1 -0.1)">
      <use xlink:href="#DejaVuSans-31"/>
      <use xlink:href="#DejaVuSans-2e" transform="translate(63.623047 0)"/>
      <use xlink:href="#DejaVuSans-30" transform="translate(95.410156 0)"/>
      <use xlink:href="#DejaVuSans-30" transform="translate(159.033203 0)"/>
     </g>
    </g>
   </g>
  </g>
  <g id="axis3d_2">
   <g id="line2d_11">
    <path d="M 457.378832 277.5956 
L 341.356075 396.663491 
" style="fill: none; stroke: #000000; stroke-width: 0.8; stroke-linecap: square"/>
   </g>
   <g id="xtick_10">
    <g id="line2d_12">
     <path d="M 347.550403 387.830753 
L 353.05579 389.614774 
" style="fill: none; stroke: #000000; stroke-width: 0.8; stroke-linecap: square"/>
    </g>
    <g id="text_10">
     <!-- −1.00 -->
     <g transform="translate(346.939496 409.444109) scale(0.1 -0.1)">
      <use xlink:href="#DejaVuSans-2212"/>
      <use xlink:href="#DejaVuSans-31" transform="translate(83.789062 0)"/>
      <use xlink:href="#DejaVuSans-2e" transform="translate(147.412109 0)"/>
      <use xlink:href="#DejaVuSans-30" transform="translate(179.199219 0)"/>
      <use xlink:href="#DejaVuSans-30" transform="translate(242.822266 0)"/>
     </g>
    </g>
   </g>
   <g id="xtick_11">
    <g id="line2d_13">
     <path d="M 361.105753 373.944549 
L 366.573008 375.692816 
" style="fill: none; stroke: #000000; stroke-width: 0.8; stroke-linecap: square"/>
    </g>
    <g id="text_11">
     <!-- −0.75 -->
     <g transform="translate(360.357929 395.405173) scale(0.1 -0.1)">
      <use xlink:href="#DejaVuSans-2212"/>
      <use xlink:href="#DejaVuSans-30" transform="translate(83.789062 0)"/>
      <use xlink:href="#DejaVuSans-2e" transform="translate(147.412109 0)"/>
      <use xlink:href="#DejaVuSans-37" transform="translate(179.199219 0)"/>
      <use xlink:href="#DejaVuSans-35" transform="translate(242.822266 0)"/>
     </g>
    </g>
   </g>
   <g id="xtick_12">
    <g id="line2d_14">
     <path d="M 374.390953 360.335088 
L 379.820496 362.048665 
" style="fill: none; stroke: #000000; stroke-width: 0.8; stroke-linecap: square"/>
    </g>
    <g id="text_12">
     <!-- −0.50 -->
     <g transform="translate(373.50872 381.646254) scale(0.1 -0.1)">
      <use xlink:href="#DejaVuSans-2212"/>
      <use xlink:href="#DejaVuSans-30" transform="translate(83.789062 0)"/>
      <use xlink:href="#DejaVuSans-2e" transform="translate(147.412109 0)"/>
      <use xlink:href="#DejaVuSans-35" transform="translate(179.199219 0)"/>
      <use xlink:href="#DejaVuSans-30" transform="translate(242.822266 0)"/>
     </g>
    </g>
   </g>
   <g id="xtick_13">
    <g id="line2d_15">
     <path d="M 387.414 346.994179 
L 392.806247 348.674088 
" style="fill: none; stroke: #000000; stroke-width: 0.8; stroke-linecap: square"/>
    </g>
    <g id="text_13">
     <!-- −0.25 -->
     <g transform="translate(386.399799 368.159058) scale(0.1 -0.1)">
      <use xlink:href="#DejaVuSans-2212"/>
      <use xlink:href="#DejaVuSans-30" transform="translate(83.789062 0)"/>
      <use xlink:href="#DejaVuSans-2e" transform="translate(147.412109 0)"/>
      <use xlink:href="#DejaVuSans-32" transform="translate(179.199219 0)"/>
      <use xlink:href="#DejaVuSans-35" transform="translate(242.822266 0)"/>
     </g>
    </g>
   </g>
   <g id="xtick_14">
    <g id="line2d_16">
     <path d="M 400.182577 333.91395 
L 405.537941 335.561175 
" style="fill: none; stroke: #000000; stroke-width: 0.8; stroke-linecap: square"/>
    </g>
    <g id="text_14">
     <!-- 0.00 -->
     <g transform="translate(403.228627 354.935613) scale(0.1 -0.1)">
      <use xlink:href="#DejaVuSans-30"/>
      <use xlink:href="#DejaVuSans-2e" transform="translate(63.623047 0)"/>
      <use xlink:href="#DejaVuSans-30" transform="translate(95.410156 0)"/>
      <use xlink:href="#DejaVuSans-30" transform="translate(159.033203 0)"/>
     </g>
    </g>
   </g>
   <g id="xtick_15">
    <g id="line2d_17">
     <path d="M 412.704071 321.086836 
L 418.022963 322.702319 
" style="fill: none; stroke: #000000; stroke-width: 0.8; stroke-linecap: square"/>
    </g>
    <g id="text_15">
     <!-- 0.25 -->
     <g transform="translate(415.622841 341.968259) scale(0.1 -0.1)">
      <use xlink:href="#DejaVuSans-30"/>
      <use xlink:href="#DejaVuSans-2e" transform="translate(63.623047 0)"/>
      <use xlink:href="#DejaVuSans-32" transform="translate(95.410156 0)"/>
      <use xlink:href="#DejaVuSans-35" transform="translate(159.033203 0)"/>
     </g>
    </g>
   </g>
   <g id="xtick_16">
    <g id="line2d_18">
     <path d="M 424.985585 308.505558 
L 430.268413 310.09021 
" style="fill: none; stroke: #000000; stroke-width: 0.8; stroke-linecap: square"/>
    </g>
    <g id="text_16">
     <!-- 0.50 -->
     <g transform="translate(427.779325 329.249627) scale(0.1 -0.1)">
      <use xlink:href="#DejaVuSans-30"/>
      <use xlink:href="#DejaVuSans-2e" transform="translate(63.623047 0)"/>
      <use xlink:href="#DejaVuSans-35" transform="translate(95.410156 0)"/>
      <use xlink:href="#DejaVuSans-30" transform="translate(159.033203 0)"/>
     </g>
    </g>
   </g>
   <g id="xtick_17">
    <g id="line2d_19">
     <path d="M 437.033953 296.163118 
L 442.28112 297.717812 
" style="fill: none; stroke: #000000; stroke-width: 0.8; stroke-linecap: square"/>
    </g>
    <g id="text_17">
     <!-- 0.75 -->
     <g transform="translate(439.704856 316.772628) scale(0.1 -0.1)">
      <use xlink:href="#DejaVuSans-30"/>
      <use xlink:href="#DejaVuSans-2e" transform="translate(63.623047 0)"/>
      <use xlink:href="#DejaVuSans-37" transform="translate(95.410156 0)"/>
      <use xlink:href="#DejaVuSans-35" transform="translate(159.033203 0)"/>
     </g>
    </g>
   </g>
   <g id="xtick_18">
    <g id="line2d_20">
     <path d="M 448.855751 284.052778 
L 454.067657 285.578356 
" style="fill: none; stroke: #000000; stroke-width: 0.8; stroke-linecap: square"/>
    </g>
    <g id="text_18">
     <!-- 1.00 -->
     <g transform="translate(451.405952 304.530443) scale(0.1 -0.1)">
      <use xlink:href="#DejaVuSans-31"/>
      <use xlink:href="#DejaVuSans-2e" transform="translate(63.623047 0)"/>
      <use xlink:href="#DejaVuSans-30" transform="translate(95.410156 0)"/>
      <use xlink:href="#DejaVuSans-30" transform="translate(159.033203 0)"/>
     </g>
    </g>
   </g>
  </g>
  <g id="axis3d_3">
   <g id="line2d_21">
    <path d="M 457.378832 277.5956 
L 464.73122 117.038237 
" style="fill: none; stroke: #000000; stroke-width: 0.8; stroke-linecap: square"/>
   </g>
   <g id="xtick_19">
    <g id="line2d_22">
     <path d="M 455.78902 274.017695 
L 460.985167 275.524301 
" style="fill: none; stroke: #000000; stroke-width: 0.8; stroke-linecap: square"/>
    </g>
    <g id="text_19">
     <!-- 1.0 -->
     <g transform="translate(467.849409 279.514562) scale(0.1 -0.1)">
      <use xlink:href="#DejaVuSans-31"/>
      <use xlink:href="#DejaVuSans-2e" transform="translate(63.623047 0)"/>
      <use xlink:href="#DejaVuSans-30" transform="translate(95.410156 0)"/>
     </g>
    </g>
   </g>
   <g id="xtick_20">
    <g id="line2d_23">
     <path d="M 457.138798 244.223969 
L 462.379768 245.707346 
" style="fill: none; stroke: #000000; stroke-width: 0.8; stroke-linecap: square"/>
    </g>
    <g id="text_20">
     <!-- 1.2 -->
     <g transform="translate(469.362839 249.753287) scale(0.1 -0.1)">
      <use xlink:href="#DejaVuSans-31"/>
      <use xlink:href="#DejaVuSans-2e" transform="translate(63.623047 0)"/>
      <use xlink:href="#DejaVuSans-32" transform="translate(95.410156 0)"/>
     </g>
    </g>
   </g>
   <g id="xtick_21">
    <g id="line2d_24">
     <path d="M 458.511182 213.931252 
L 463.797754 215.390408 
" style="fill: none; stroke: #000000; stroke-width: 0.8; stroke-linecap: square"/>
    </g>
    <g id="text_21">
     <!-- 1.4 -->
     <g transform="translate(470.901574 219.494406) scale(0.1 -0.1)">
      <defs>
       <path id="DejaVuSans-34" d="M 2419 4116 
L 825 1625 
L 2419 1625 
L 2419 4116 
z
M 2253 4666 
L 3047 4666 
L 3047 1625 
L 3713 1625 
L 3713 1100 
L 3047 1100 
L 3047 0 
L 2419 0 
L 2419 1100 
L 313 1100 
L 313 1709 
L 2253 4666 
z
" transform="scale(0.015625)"/>
      </defs>
      <use xlink:href="#DejaVuSans-31"/>
      <use xlink:href="#DejaVuSans-2e" transform="translate(63.623047 0)"/>
      <use xlink:href="#DejaVuSans-34" transform="translate(95.410156 0)"/>
     </g>
    </g>
   </g>
   <g id="xtick_22">
    <g id="line2d_25">
     <path d="M 459.906745 183.126904 
L 465.239719 184.560804 
" style="fill: none; stroke: #000000; stroke-width: 0.8; stroke-linecap: square"/>
    </g>
    <g id="text_22">
     <!-- 1.6 -->
     <g transform="translate(472.466253 188.725335) scale(0.1 -0.1)">
      <defs>
       <path id="DejaVuSans-36" d="M 2113 2584 
Q 1688 2584 1439 2293 
Q 1191 2003 1191 1497 
Q 1191 994 1439 701 
Q 1688 409 2113 409 
Q 2538 409 2786 701 
Q 3034 994 3034 1497 
Q 3034 2003 2786 2293 
Q 2538 2584 2113 2584 
z
M 3366 4563 
L 3366 3988 
Q 3128 4100 2886 4159 
Q 2644 4219 2406 4219 
Q 1781 4219 1451 3797 
Q 1122 3375 1075 2522 
Q 1259 2794 1537 2939 
Q 1816 3084 2150 3084 
Q 2853 3084 3261 2657 
Q 3669 2231 3669 1497 
Q 3669 778 3244 343 
Q 2819 -91 2113 -91 
Q 1303 -91 875 529 
Q 447 1150 447 2328 
Q 447 3434 972 4092 
Q 1497 4750 2381 4750 
Q 2619 4750 2861 4703 
Q 3103 4656 3366 4563 
z
" transform="scale(0.015625)"/>
      </defs>
      <use xlink:href="#DejaVuSans-31"/>
      <use xlink:href="#DejaVuSans-2e" transform="translate(63.623047 0)"/>
      <use xlink:href="#DejaVuSans-36" transform="translate(95.410156 0)"/>
     </g>
    </g>
   </g>
   <g id="xtick_23">
    <g id="line2d_26">
     <path d="M 461.32608 151.797852 
L 466.706276 153.20542 
" style="fill: none; stroke: #000000; stroke-width: 0.8; stroke-linecap: square"/>
    </g>
    <g id="text_23">
     <!-- 1.8 -->
     <g transform="translate(474.057538 157.433061) scale(0.1 -0.1)">
      <defs>
       <path id="DejaVuSans-38" d="M 2034 2216 
Q 1584 2216 1326 1975 
Q 1069 1734 1069 1313 
Q 1069 891 1326 650 
Q 1584 409 2034 409 
Q 2484 409 2743 651 
Q 3003 894 3003 1313 
Q 3003 1734 2745 1975 
Q 2488 2216 2034 2216 
z
M 1403 2484 
Q 997 2584 770 2862 
Q 544 3141 544 3541 
Q 544 4100 942 4425 
Q 1341 4750 2034 4750 
Q 2731 4750 3128 4425 
Q 3525 4100 3525 3541 
Q 3525 3141 3298 2862 
Q 3072 2584 2669 2484 
Q 3125 2378 3379 2068 
Q 3634 1759 3634 1313 
Q 3634 634 3220 271 
Q 2806 -91 2034 -91 
Q 1263 -91 848 271 
Q 434 634 434 1313 
Q 434 1759 690 2068 
Q 947 2378 1403 2484 
z
M 1172 3481 
Q 1172 3119 1398 2916 
Q 1625 2713 2034 2713 
Q 2441 2713 2670 2916 
Q 2900 3119 2900 3481 
Q 2900 3844 2670 4047 
Q 2441 4250 2034 4250 
Q 1625 4250 1398 4047 
Q 1172 3844 1172 3481 
z
" transform="scale(0.015625)"/>
      </defs>
      <use xlink:href="#DejaVuSans-31"/>
      <use xlink:href="#DejaVuSans-2e" transform="translate(63.623047 0)"/>
      <use xlink:href="#DejaVuSans-38" transform="translate(95.410156 0)"/>
     </g>
    </g>
   </g>
   <g id="xtick_24">
    <g id="line2d_27">
     <path d="M 462.769798 119.930575 
L 468.198059 121.310688 
" style="fill: none; stroke: #000000; stroke-width: 0.8; stroke-linecap: square"/>
    </g>
    <g id="text_24">
     <!-- 2.0 -->
     <g transform="translate(475.676114 125.604123) scale(0.1 -0.1)">
      <use xlink:href="#DejaVuSans-32"/>
      <use xlink:href="#DejaVuSans-2e" transform="translate(63.623047 0)"/>
      <use xlink:href="#DejaVuSans-30" transform="translate(95.410156 0)"/>
     </g>
    </g>
   </g>
  </g>
  <g id="axes_2">
   <g id="Poly3DCollection_1">
    <path d="M 322.361037 234.857364 
L 300.147441 200.88479 
L 321.433812 244.936366 
z
" clip-path="url(#p8af8dca688)" style="fill: #114061"/>
    <path d="M 344.732845 250.524207 
L 322.361037 234.857364 
L 321.433812 244.936366 
z
" clip-path="url(#p8af8dca688)" style="fill: #15517b"/>
    <path d="M 287.259981 230.770251 
L 300.147441 200.88479 
L 276.650892 198.464807 
z
" clip-path="url(#p8af8dca688)" style="fill: #16537e"/>
    <path d="M 300.147441 200.88479 
L 277.754157 147.96227 
L 276.650892 198.464807 
z
" clip-path="url(#p8af8dca688)" style="fill: #15517b"/>
    <path d="M 300.147441 200.88479 
L 309.687124 244.062148 
L 321.433812 244.936366 
z
" clip-path="url(#p8af8dca688)" style="fill: #165580"/>
    <path d="M 300.147441 200.88479 
L 287.259981 230.770251 
L 297.892687 243.879314 
z
" clip-path="url(#p8af8dca688)" style="fill: #1b689d"/>
    <path d="M 309.687124 244.062148 
L 300.147441 200.88479 
L 297.892687 243.879314 
z
" clip-path="url(#p8af8dca688)" style="fill: #165682"/>
    <path d="M 332.311968 253.645796 
L 344.732845 250.524207 
L 321.433812 244.936366 
z
" clip-path="url(#p8af8dca688)" style="fill: #15517b"/>
    <path d="M 274.205042 249.053273 
L 287.259981 230.770251 
L 276.650892 198.464807 
z
" clip-path="url(#p8af8dca688)" style="fill: #13496f"/>
    <path d="M 264.828374 197.020594 
L 274.205042 249.053273 
L 276.650892 198.464807 
z
" clip-path="url(#p8af8dca688)" style="fill: #16537e"/>
    <path d="M 229.365605 210.213383 
L 251.812909 235.552246 
L 253.021545 201.564672 
z
" clip-path="url(#p8af8dca688)" style="fill: #185c8c"/>
    <path d="M 274.205042 249.053273 
L 264.828374 197.020594 
L 253.021545 201.564672 
z
" clip-path="url(#p8af8dca688)" style="fill: #195e8f"/>
    <path d="M 287.259981 230.770251 
L 274.205042 249.053273 
L 297.892687 243.879314 
z
" clip-path="url(#p8af8dca688)" style="fill: #185d8d"/>
    <path d="M 242.152135 152.435124 
L 229.365605 210.213383 
L 253.021545 201.564672 
z
" clip-path="url(#p8af8dca688)" style="fill: #175885"/>
    <path d="M 251.812909 235.552246 
L 274.205042 249.053273 
L 253.021545 201.564672 
z
" clip-path="url(#p8af8dca688)" style="fill: #1b669a"/>
    <path d="M 367.605938 247.97092 
L 344.732845 250.524207 
L 367.118996 253.770147 
z
" clip-path="url(#p8af8dca688)" style="fill: #196092"/>
    <path d="M 254.831117 74.847311 
L 264.828374 197.020594 
L 276.650892 198.464807 
z
" clip-path="url(#p8af8dca688)" style="fill: #15517a"/>
    <path d="M 251.812909 235.552246 
L 229.365605 210.213383 
L 250.372545 250.366362 
z
" clip-path="url(#p8af8dca688)" style="fill: #144c73"/>
    <path d="M 277.754157 147.96227 
L 254.831117 74.847311 
L 276.650892 198.464807 
z
" clip-path="url(#p8af8dca688)" style="fill: #13476c"/>
    <path d="M 344.732845 250.524207 
L 332.311968 253.645796 
L 343.366477 260.102056 
z
" clip-path="url(#p8af8dca688)" style="fill: #16547f"/>
    <path d="M 264.828374 197.020594 
L 254.831117 74.847311 
L 253.021545 201.564672 
z
" clip-path="url(#p8af8dca688)" style="fill: #175783"/>
    <path d="M 229.365605 210.213383 
L 216.27712 249.272161 
L 226.504617 257.940114 
z
" clip-path="url(#p8af8dca688)" style="fill: #1d70a9"/>
    <path d="M 274.205042 249.053273 
L 251.812909 235.552246 
L 250.372545 250.366362 
z
" clip-path="url(#p8af8dca688)" style="fill: #175986"/>
    <path d="M 309.687124 244.062148 
L 319.557535 262.503168 
L 321.433812 244.936366 
z
" clip-path="url(#p8af8dca688)" style="fill: #165681"/>
    <path d="M 344.732845 250.524207 
L 355.234495 258.030853 
L 367.118996 253.770147 
z
" clip-path="url(#p8af8dca688)" style="fill: #196192"/>
    <path d="M 274.205042 249.053273 
L 296.759057 255.741973 
L 297.892687 243.879314 
z
" clip-path="url(#p8af8dca688)" style="fill: #185d8d"/>
    <path d="M 229.365605 210.213383 
L 238.441846 253.802036 
L 250.372545 250.366362 
z
" clip-path="url(#p8af8dca688)" style="fill: #185d8d"/>
    <path d="M 254.831117 74.847311 
L 242.152135 152.435124 
L 253.021545 201.564672 
z
" clip-path="url(#p8af8dca688)" style="fill: #196092"/>
    <path d="M 355.234495 258.030853 
L 344.732845 250.524207 
L 343.366477 260.102056 
z
" clip-path="url(#p8af8dca688)" style="fill: #185c8b"/>
    <path d="M 319.557535 262.503168 
L 309.687124 244.062148 
L 297.892687 243.879314 
z
" clip-path="url(#p8af8dca688)" style="fill: #175784"/>
    <path d="M 238.441846 253.802036 
L 229.365605 210.213383 
L 226.504617 257.940114 
z
" clip-path="url(#p8af8dca688)" style="fill: #195f8f"/>
    <path d="M 319.557535 262.503168 
L 332.311968 253.645796 
L 321.433812 244.936366 
z
" clip-path="url(#p8af8dca688)" style="fill: #175884"/>
    <path d="M 216.27712 249.272161 
L 202.683699 270.121079 
L 226.504617 257.940114 
z
" clip-path="url(#p8af8dca688)" style="fill: #1a6498"/>
    <path d="M 260.893822 260.684334 
L 274.205042 249.053273 
L 250.372545 250.366362 
z
" clip-path="url(#p8af8dca688)" style="fill: #175987"/>
    <path d="M 391.346341 226.720982 
L 367.605938 247.97092 
L 367.118996 253.770147 
z
" clip-path="url(#p8af8dca688)" style="fill: #1c6da5"/>
    <path d="M 296.759057 255.741973 
L 319.557535 262.503168 
L 297.892687 243.879314 
z
" clip-path="url(#p8af8dca688)" style="fill: #185d8d"/>
    <path d="M 296.759057 255.741973 
L 274.205042 249.053273 
L 295.609616 265.829542 
z
" clip-path="url(#p8af8dca688)" style="fill: #185b8a"/>
    <path d="M 332.311968 253.645796 
L 319.557535 262.503168 
L 343.366477 260.102056 
z
" clip-path="url(#p8af8dca688)" style="fill: #175a88"/>
    <path d="M 202.683699 270.121079 
L 224.797189 268.49515 
L 226.504617 257.940114 
z
" clip-path="url(#p8af8dca688)" style="fill: #1a6498"/>
    <path d="M 274.205042 249.053273 
L 260.893822 260.684334 
L 271.534345 269.173604 
z
" clip-path="url(#p8af8dca688)" style="fill: #185b8a"/>
    <path d="M 238.441846 253.802036 
L 247.330701 272.535497 
L 250.372545 250.366362 
z
" clip-path="url(#p8af8dca688)" style="fill: #195f90"/>
    <path d="M 247.330701 272.535497 
L 238.441846 253.802036 
L 226.504617 257.940114 
z
" clip-path="url(#p8af8dca688)" style="fill: #196192"/>
    <path d="M 274.205042 249.053273 
L 283.587963 267.499353 
L 295.609616 265.829542 
z
" clip-path="url(#p8af8dca688)" style="fill: #185b8a"/>
    <path d="M 319.557535 262.503168 
L 296.759057 255.741973 
L 295.609616 265.829542 
z
" clip-path="url(#p8af8dca688)" style="fill: #185b8a"/>
    <path d="M 378.56999 256.801277 
L 391.346341 226.720982 
L 367.118996 253.770147 
z
" clip-path="url(#p8af8dca688)" style="fill: #1d6fa8"/>
    <path d="M 283.587963 267.499353 
L 274.205042 249.053273 
L 271.534345 269.173604 
z
" clip-path="url(#p8af8dca688)" style="fill: #185b8a"/>
    <path d="M 247.330701 272.535497 
L 260.893822 260.684334 
L 250.372545 250.366362 
z
" clip-path="url(#p8af8dca688)" style="fill: #175987"/>
    <path d="M 355.234495 258.030853 
L 365.903952 276.247822 
L 367.118996 253.770147 
z
" clip-path="url(#p8af8dca688)" style="fill: #196193"/>
    <path d="M 319.557535 262.503168 
L 342.604472 269.338048 
L 343.366477 260.102056 
z
" clip-path="url(#p8af8dca688)" style="fill: #175a88"/>
    <path d="M 224.797189 268.49515 
L 247.330701 272.535497 
L 226.504617 257.940114 
z
" clip-path="url(#p8af8dca688)" style="fill: #195f8f"/>
    <path d="M 365.903952 276.247822 
L 355.234495 258.030853 
L 343.366477 260.102056 
z
" clip-path="url(#p8af8dca688)" style="fill: #185c8b"/>
    <path d="M 224.797189 268.49515 
L 202.683699 270.121079 
L 223.015595 276.830936 
z
" clip-path="url(#p8af8dca688)" style="fill: #1a6294"/>
    <path d="M 365.903952 276.247822 
L 378.56999 256.801277 
L 367.118996 253.770147 
z
" clip-path="url(#p8af8dca688)" style="fill: #1b689d"/>
    <path d="M 260.893822 260.684334 
L 247.330701 272.535497 
L 271.534345 269.173604 
z
" clip-path="url(#p8af8dca688)" style="fill: #185b8a"/>
    <path d="M 306.530418 274.388939 
L 319.557535 262.503168 
L 295.609616 265.829542 
z
" clip-path="url(#p8af8dca688)" style="fill: #185b8a"/>
    <path d="M 342.604472 269.338048 
L 365.903952 276.247822 
L 343.366477 260.102056 
z
" clip-path="url(#p8af8dca688)" style="fill: #175a88"/>
    <path d="M 202.683699 270.121079 
L 188.36318 272.710981 
L 198.477091 277.154641 
z
" clip-path="url(#p8af8dca688)" style="fill: #165581"/>
    <path d="M 391.346341 226.720982 
L 378.56999 256.801277 
L 390.164984 261.620811 
z
" clip-path="url(#p8af8dca688)" style="fill: #1d6ea6"/>
    <path d="M 202.683699 270.121079 
L 210.793546 278.101509 
L 223.015595 276.830936 
z
" clip-path="url(#p8af8dca688)" style="fill: #175a88"/>
    <path d="M 342.604472 269.338048 
L 319.557535 262.503168 
L 341.817171 279.647593 
z
" clip-path="url(#p8af8dca688)" style="fill: #185b8a"/>
    <path d="M 210.793546 278.101509 
L 202.683699 270.121079 
L 198.477091 277.154641 
z
" clip-path="url(#p8af8dca688)" style="fill: #165581"/>
    <path d="M 247.330701 272.535497 
L 224.797189 268.49515 
L 223.015595 276.830936 
z
" clip-path="url(#p8af8dca688)" style="fill: #185c8b"/>
    <path d="M 402.446533 249.582061 
L 391.346341 226.720982 
L 390.164984 261.620811 
z
" clip-path="url(#p8af8dca688)" style="fill: #1c6da5"/>
    <path d="M 283.587963 267.499353 
L 293.254054 286.502119 
L 295.609616 265.829542 
z
" clip-path="url(#p8af8dca688)" style="fill: #185b8a"/>
    <path d="M 319.557535 262.503168 
L 306.530418 274.388939 
L 317.600888 283.065643 
z
" clip-path="url(#p8af8dca688)" style="fill: #185b8a"/>
    <path d="M 378.56999 256.801277 
L 365.903952 276.247822 
L 390.164984 261.620811 
z
" clip-path="url(#p8af8dca688)" style="fill: #1b669b"/>
    <path d="M 247.330701 272.535497 
L 270.166253 279.48045 
L 271.534345 269.173604 
z
" clip-path="url(#p8af8dca688)" style="fill: #185b8a"/>
    <path d="M 293.254054 286.502119 
L 283.587963 267.499353 
L 271.534345 269.173604 
z
" clip-path="url(#p8af8dca688)" style="fill: #185b8a"/>
    <path d="M 319.557535 262.503168 
L 329.725283 281.354324 
L 341.817171 279.647593 
z
" clip-path="url(#p8af8dca688)" style="fill: #185b8a"/>
    <path d="M 365.903952 276.247822 
L 342.604472 269.338048 
L 341.817171 279.647593 
z
" clip-path="url(#p8af8dca688)" style="fill: #185b8a"/>
    <path d="M 293.254054 286.502119 
L 306.530418 274.388939 
L 295.609616 265.829542 
z
" clip-path="url(#p8af8dca688)" style="fill: #185b8a"/>
    <path d="M 329.725283 281.354324 
L 319.557535 262.503168 
L 317.600888 283.065643 
z
" clip-path="url(#p8af8dca688)" style="fill: #185b8a"/>
    <path d="M 391.346341 226.720982 
L 402.446533 249.582061 
L 415.423867 217.882589 
z
" clip-path="url(#p8af8dca688)" style="fill: #1f76b3"/>
    <path d="M 233.508463 284.613072 
L 247.330701 272.535497 
L 223.015595 276.830936 
z
" clip-path="url(#p8af8dca688)" style="fill: #185c8c"/>
    <path d="M 416.363193 185.687823 
L 391.346341 226.720982 
L 415.423867 217.882589 
z
" clip-path="url(#p8af8dca688)" style="fill: #1f76b3"/>
    <path d="M 270.166253 279.48045 
L 293.254054 286.502119 
L 271.534345 269.173604 
z
" clip-path="url(#p8af8dca688)" style="fill: #185b8a"/>
    <path d="M 365.903952 276.247822 
L 389.664458 275.634366 
L 390.164984 261.620811 
z
" clip-path="url(#p8af8dca688)" style="fill: #1b669b"/>
    <path d="M 270.166253 279.48045 
L 247.330701 272.535497 
L 268.775612 289.957171 
z
" clip-path="url(#p8af8dca688)" style="fill: #185b8a"/>
    <path d="M 188.36318 272.710981 
L 173.061805 256.411872 
L 198.477091 277.154641 
z
" clip-path="url(#p8af8dca688)" style="fill: #124366"/>
    <path d="M 306.530418 274.388939 
L 293.254054 286.502119 
L 317.600888 283.065643 
z
" clip-path="url(#p8af8dca688)" style="fill: #185b8a"/>
    <path d="M 353.176747 288.396765 
L 365.903952 276.247822 
L 341.817171 279.647593 
z
" clip-path="url(#p8af8dca688)" style="fill: #185b8a"/>
    <path d="M 210.793546 278.101509 
L 219.419609 296.923609 
L 223.015595 276.830936 
z
" clip-path="url(#p8af8dca688)" style="fill: #185a89"/>
    <path d="M 247.330701 272.535497 
L 233.508463 284.613072 
L 244.16449 293.430951 
z
" clip-path="url(#p8af8dca688)" style="fill: #185b8a"/>
    <path d="M 247.330701 272.535497 
L 256.486703 291.69171 
L 268.775612 289.957171 
z
" clip-path="url(#p8af8dca688)" style="fill: #185b8a"/>
    <path d="M 219.419609 296.923609 
L 210.793546 278.101509 
L 198.477091 277.154641 
z
" clip-path="url(#p8af8dca688)" style="fill: #165581"/>
    <path d="M 414.165201 263.877874 
L 402.446533 249.582061 
L 390.164984 261.620811 
z
" clip-path="url(#p8af8dca688)" style="fill: #1c6da5"/>
    <path d="M 293.254054 286.502119 
L 270.166253 279.48045 
L 268.775612 289.957171 
z
" clip-path="url(#p8af8dca688)" style="fill: #185b8a"/>
    <path d="M 389.664458 275.634366 
L 365.903952 276.247822 
L 389.109769 291.598187 
z
" clip-path="url(#p8af8dca688)" style="fill: #1b689d"/>
    <path d="M 219.419609 296.923609 
L 233.508463 284.613072 
L 223.015595 276.830936 
z
" clip-path="url(#p8af8dca688)" style="fill: #185c8c"/>
    <path d="M 256.486703 291.69171 
L 247.330701 272.535497 
L 244.16449 293.430951 
z
" clip-path="url(#p8af8dca688)" style="fill: #185b8a"/>
    <path d="M 365.903952 276.247822 
L 353.176747 288.396765 
L 364.67519 298.192623 
z
" clip-path="url(#p8af8dca688)" style="fill: #175a88"/>
    <path d="M 329.725283 281.354324 
L 340.203313 300.780748 
L 341.817171 279.647593 
z
" clip-path="url(#p8af8dca688)" style="fill: #185b8a"/>
    <path d="M 389.664458 275.634366 
L 414.165201 263.877874 
L 390.164984 261.620811 
z
" clip-path="url(#p8af8dca688)" style="fill: #1d6ea6"/>
    <path d="M 293.254054 286.502119 
L 316.598309 293.601783 
L 317.600888 283.065643 
z
" clip-path="url(#p8af8dca688)" style="fill: #185b8a"/>
    <path d="M 173.061805 256.411872 
L 196.34706 282.162791 
L 198.477091 277.154641 
z
" clip-path="url(#p8af8dca688)" style="fill: #114365"/>
    <path d="M 340.203313 300.780748 
L 329.725283 281.354324 
L 317.600888 283.065643 
z
" clip-path="url(#p8af8dca688)" style="fill: #185b8a"/>
    <path d="M 365.903952 276.247822 
L 376.87751 296.011396 
L 389.109769 291.598187 
z
" clip-path="url(#p8af8dca688)" style="fill: #196193"/>
    <path d="M 402.446533 249.582061 
L 414.165201 263.877874 
L 415.423867 217.882589 
z
" clip-path="url(#p8af8dca688)" style="fill: #1f76b3"/>
    <path d="M 376.87751 296.011396 
L 365.903952 276.247822 
L 364.67519 298.192623 
z
" clip-path="url(#p8af8dca688)" style="fill: #185c8b"/>
    <path d="M 340.203313 300.780748 
L 353.176747 288.396765 
L 341.817171 279.647593 
z
" clip-path="url(#p8af8dca688)" style="fill: #185b8a"/>
    <path d="M 196.34706 282.162791 
L 219.419609 296.923609 
L 198.477091 277.154641 
z
" clip-path="url(#p8af8dca688)" style="fill: #144d74"/>
    <path d="M 233.508463 284.613072 
L 219.419609 296.923609 
L 244.16449 293.430951 
z
" clip-path="url(#p8af8dca688)" style="fill: #185b8a"/>
    <path d="M 279.721222 298.849297 
L 293.254054 286.502119 
L 268.775612 289.957171 
z
" clip-path="url(#p8af8dca688)" style="fill: #185b8a"/>
    <path d="M 316.598309 293.601783 
L 340.203313 300.780748 
L 317.600888 283.065643 
z
" clip-path="url(#p8af8dca688)" style="fill: #185b8a"/>
    <path d="M 414.165201 263.877874 
L 389.664458 275.634366 
L 389.109769 291.598187 
z
" clip-path="url(#p8af8dca688)" style="fill: #1d6fa8"/>
    <path d="M 316.598309 293.601783 
L 293.254054 286.502119 
L 315.57902 304.313523 
z
" clip-path="url(#p8af8dca688)" style="fill: #185b8a"/>
    <path d="M 353.176747 288.396765 
L 340.203313 300.780748 
L 364.67519 298.192623 
z
" clip-path="url(#p8af8dca688)" style="fill: #175a88"/>
    <path d="M 443.133739 123.074447 
L 416.363193 185.687823 
L 415.423867 217.882589 
z
" clip-path="url(#p8af8dca688)" style="fill: #1f77b4"/>
    <path d="M 196.34706 282.162791 
L 173.061805 256.411872 
L 194.223791 289.03227 
z
" clip-path="url(#p8af8dca688)" style="fill: #124467"/>
    <path d="M 414.165201 263.877874 
L 428.196934 203.705971 
L 415.423867 217.882589 
z
" clip-path="url(#p8af8dca688)" style="fill: #1f76b3"/>
    <path d="M 256.486703 291.69171 
L 265.924416 311.437321 
L 268.775612 289.957171 
z
" clip-path="url(#p8af8dca688)" style="fill: #185b8a"/>
    <path d="M 293.254054 286.502119 
L 279.721222 298.849297 
L 290.819759 307.86566 
z
" clip-path="url(#p8af8dca688)" style="fill: #185b8a"/>
    <path d="M 219.419609 296.923609 
L 196.34706 282.162791 
L 194.223791 289.03227 
z
" clip-path="url(#p8af8dca688)" style="fill: #144f77"/>
    <path d="M 219.419609 296.923609 
L 242.541813 304.139831 
L 244.16449 293.430951 
z
" clip-path="url(#p8af8dca688)" style="fill: #185b8a"/>
    <path d="M 400.804518 304.774296 
L 414.165201 263.877874 
L 389.109769 291.598187 
z
" clip-path="url(#p8af8dca688)" style="fill: #1c6da5"/>
    <path d="M 265.924416 311.437321 
L 256.486703 291.69171 
L 244.16449 293.430951 
z
" clip-path="url(#p8af8dca688)" style="fill: #185b8a"/>
    <path d="M 293.254054 286.502119 
L 303.21633 306.087161 
L 315.57902 304.313523 
z
" clip-path="url(#p8af8dca688)" style="fill: #185b8a"/>
    <path d="M 340.203313 300.780748 
L 316.598309 293.601783 
L 315.57902 304.313523 
z
" clip-path="url(#p8af8dca688)" style="fill: #185b8a"/>
    <path d="M 265.924416 311.437321 
L 279.721222 298.849297 
L 268.775612 289.957171 
z
" clip-path="url(#p8af8dca688)" style="fill: #185b8a"/>
    <path d="M 303.21633 306.087161 
L 293.254054 286.502119 
L 290.819759 307.86566 
z
" clip-path="url(#p8af8dca688)" style="fill: #185b8a"/>
    <path d="M 376.87751 296.011396 
L 387.903365 326.95453 
L 389.109769 291.598187 
z
" clip-path="url(#p8af8dca688)" style="fill: #196192"/>
    <path d="M 387.903365 326.95453 
L 376.87751 296.011396 
L 364.67519 298.192623 
z
" clip-path="url(#p8af8dca688)" style="fill: #185c8b"/>
    <path d="M 340.203313 300.780748 
L 364.015868 310.930287 
L 364.67519 298.192623 
z
" clip-path="url(#p8af8dca688)" style="fill: #175a88"/>
    <path d="M 173.061805 256.411872 
L 181.363555 280.255627 
L 194.223791 289.03227 
z
" clip-path="url(#p8af8dca688)" style="fill: #124669"/>
    <path d="M 387.903365 326.95453 
L 400.804518 304.774296 
L 389.109769 291.598187 
z
" clip-path="url(#p8af8dca688)" style="fill: #196092"/>
    <path d="M 428.196934 203.705971 
L 443.133739 123.074447 
L 415.423867 217.882589 
z
" clip-path="url(#p8af8dca688)" style="fill: #1f77b4"/>
    <path d="M 242.541813 304.139831 
L 265.924416 311.437321 
L 244.16449 293.430951 
z
" clip-path="url(#p8af8dca688)" style="fill: #185b8a"/>
    <path d="M 204.865185 301.774689 
L 219.419609 296.923609 
L 194.223791 289.03227 
z
" clip-path="url(#p8af8dca688)" style="fill: #144f77"/>
    <path d="M 364.015868 310.930287 
L 387.903365 326.95453 
L 364.67519 298.192623 
z
" clip-path="url(#p8af8dca688)" style="fill: #16547f"/>
    <path d="M 242.541813 304.139831 
L 219.419609 296.923609 
L 240.90565 315.962183 
z
" clip-path="url(#p8af8dca688)" style="fill: #185c8c"/>
    <path d="M 279.721222 298.849297 
L 265.924416 311.437321 
L 290.819759 307.86566 
z
" clip-path="url(#p8af8dca688)" style="fill: #185b8a"/>
    <path d="M 326.976436 313.406659 
L 340.203313 300.780748 
L 315.57902 304.313523 
z
" clip-path="url(#p8af8dca688)" style="fill: #185b8a"/>
    <path d="M 181.363555 280.255627 
L 173.061805 256.411872 
L 167.696846 251.423583 
z
" clip-path="url(#p8af8dca688)" style="fill: #0d334d"/>
    <path d="M 364.015868 310.930287 
L 340.203313 300.780748 
L 363.394478 321.430499 
z
" clip-path="url(#p8af8dca688)" style="fill: #175884"/>
    <path d="M 219.419609 296.923609 
L 228.332927 317.330793 
L 240.90565 315.962183 
z
" clip-path="url(#p8af8dca688)" style="fill: #185a89"/>
    <path d="M 219.419609 296.923609 
L 204.865185 301.774689 
L 215.672809 316.438751 
z
" clip-path="url(#p8af8dca688)" style="fill: #144d74"/>
    <path d="M 265.924416 311.437321 
L 242.541813 304.139831 
L 240.90565 315.962183 
z
" clip-path="url(#p8af8dca688)" style="fill: #185c8c"/>
    <path d="M 228.332927 317.330793 
L 219.419609 296.923609 
L 215.672809 316.438751 
z
" clip-path="url(#p8af8dca688)" style="fill: #165581"/>
    <path d="M 387.903365 326.95453 
L 364.015868 310.930287 
L 363.394478 321.430499 
z
" clip-path="url(#p8af8dca688)" style="fill: #15517b"/>
    <path d="M 303.21633 306.087161 
L 313.488616 326.281655 
L 315.57902 304.313523 
z
" clip-path="url(#p8af8dca688)" style="fill: #185b8a"/>
    <path d="M 173.061805 256.411872 
L 156.478521 219.942438 
L 167.696846 251.423583 
z
" clip-path="url(#p8af8dca688)" style="fill: #0d314a"/>
    <path d="M 340.203313 300.780748 
L 326.976436 313.406659 
L 338.560642 320.61645 
z
" clip-path="url(#p8af8dca688)" style="fill: #185d8d"/>
    <path d="M 265.924416 311.437321 
L 289.571843 318.817459 
L 290.819759 307.86566 
z
" clip-path="url(#p8af8dca688)" style="fill: #185b8a"/>
    <path d="M 340.203313 300.780748 
L 351.008419 320.663918 
L 363.394478 321.430499 
z
" clip-path="url(#p8af8dca688)" style="fill: #165681"/>
    <path d="M 313.488616 326.281655 
L 303.21633 306.087161 
L 290.819759 307.86566 
z
" clip-path="url(#p8af8dca688)" style="fill: #185b8a"/>
    <path d="M 313.488616 326.281655 
L 326.976436 313.406659 
L 315.57902 304.313523 
z
" clip-path="url(#p8af8dca688)" style="fill: #185b8a"/>
    <path d="M 351.008419 320.663918 
L 340.203313 300.780748 
L 338.560642 320.61645 
z
" clip-path="url(#p8af8dca688)" style="fill: #175784"/>
    <path d="M 181.363555 280.255627 
L 189.63069 295.430529 
L 194.223791 289.03227 
z
" clip-path="url(#p8af8dca688)" style="fill: #124669"/>
    <path d="M 189.63069 295.430529 
L 204.865185 301.774689 
L 194.223791 289.03227 
z
" clip-path="url(#p8af8dca688)" style="fill: #124467"/>
    <path d="M 251.889925 327.185937 
L 265.924416 311.437321 
L 240.90565 315.962183 
z
" clip-path="url(#p8af8dca688)" style="fill: #185c8b"/>
    <path d="M 289.571843 318.817459 
L 313.488616 326.281655 
L 290.819759 307.86566 
z
" clip-path="url(#p8af8dca688)" style="fill: #185b8a"/>
    <path d="M 375.261436 330.377992 
L 387.903365 326.95453 
L 363.394478 321.430499 
z
" clip-path="url(#p8af8dca688)" style="fill: #15517b"/>
    <path d="M 289.571843 318.817459 
L 265.924416 311.437321 
L 288.299885 327.935757 
z
" clip-path="url(#p8af8dca688)" style="fill: #175987"/>
    <path d="M 326.976436 313.406659 
L 313.488616 326.281655 
L 338.560642 320.61645 
z
" clip-path="url(#p8af8dca688)" style="fill: #185d8d"/>
    <path d="M 204.865185 301.774689 
L 189.63069 295.430529 
L 215.672809 316.438751 
z
" clip-path="url(#p8af8dca688)" style="fill: #114365"/>
    <path d="M 228.332927 317.330793 
L 237.692345 349.058251 
L 240.90565 315.962183 
z
" clip-path="url(#p8af8dca688)" style="fill: #175a88"/>
    <path d="M 189.63069 295.430529 
L 181.363555 280.255627 
L 167.696846 251.423583 
z
" clip-path="url(#p8af8dca688)" style="fill: #0d334d"/>
    <path d="M 265.924416 311.437321 
L 251.889925 327.185937 
L 262.997077 336.101851 
z
" clip-path="url(#p8af8dca688)" style="fill: #195f8f"/>
    <path d="M 237.692345 349.058251 
L 228.332927 317.330793 
L 215.672809 316.438751 
z
" clip-path="url(#p8af8dca688)" style="fill: #165581"/>
    <path d="M 237.692345 349.058251 
L 251.889925 327.185937 
L 240.90565 315.962183 
z
" clip-path="url(#p8af8dca688)" style="fill: #1a6294"/>
    <path d="M 265.924416 311.437321 
L 275.656316 331.653423 
L 288.299885 327.935757 
z
" clip-path="url(#p8af8dca688)" style="fill: #195f90"/>
    <path d="M 313.488616 326.281655 
L 289.571843 318.817459 
L 288.299885 327.935757 
z
" clip-path="url(#p8af8dca688)" style="fill: #175987"/>
    <path d="M 275.656316 331.653423 
L 265.924416 311.437321 
L 262.997077 336.101851 
z
" clip-path="url(#p8af8dca688)" style="fill: #196192"/>
    <path d="M 189.63069 295.430529 
L 213.871371 331.858068 
L 215.672809 316.438751 
z
" clip-path="url(#p8af8dca688)" style="fill: #124366"/>
    <path d="M 213.871371 331.858068 
L 237.692345 349.058251 
L 215.672809 316.438751 
z
" clip-path="url(#p8af8dca688)" style="fill: #165581"/>
    <path d="M 313.488616 326.281655 
L 337.770125 326.624049 
L 338.560642 320.61645 
z
" clip-path="url(#p8af8dca688)" style="fill: #185d8d"/>
    <path d="M 251.889925 327.185937 
L 237.692345 349.058251 
L 262.997077 336.101851 
z
" clip-path="url(#p8af8dca688)" style="fill: #1a6498"/>
    <path d="M 351.008419 320.663918 
L 362.67897 314.380117 
L 363.394478 321.430499 
z
" clip-path="url(#p8af8dca688)" style="fill: #165580"/>
    <path d="M 362.67897 314.380117 
L 351.008419 320.663918 
L 338.560642 320.61645 
z
" clip-path="url(#p8af8dca688)" style="fill: #165682"/>
    <path d="M 362.67897 314.380117 
L 375.261436 330.377992 
L 363.394478 321.430499 
z
" clip-path="url(#p8af8dca688)" style="fill: #114061"/>
    <path d="M 164.567709 239.032651 
L 189.63069 295.430529 
L 167.696846 251.423583 
z
" clip-path="url(#p8af8dca688)" style="fill: #0d314a"/>
    <path d="M 299.745346 332.185689 
L 313.488616 326.281655 
L 288.299885 327.935757 
z
" clip-path="url(#p8af8dca688)" style="fill: #175986"/>
    <path d="M 156.478521 219.942438 
L 138.243846 161.238535 
L 167.696846 251.423583 
z
" clip-path="url(#p8af8dca688)" style="fill: #0c2e46"/>
    <path d="M 237.692345 349.058251 
L 261.482795 347.140465 
L 262.997077 336.101851 
z
" clip-path="url(#p8af8dca688)" style="fill: #1a6498"/>
    <path d="M 337.770125 326.624049 
L 362.67897 314.380117 
L 338.560642 320.61645 
z
" clip-path="url(#p8af8dca688)" style="fill: #1b689d"/>
    <path d="M 337.770125 326.624049 
L 313.488616 326.281655 
L 337.217708 312.239559 
z
" clip-path="url(#p8af8dca688)" style="fill: #13496f"/>
    <path d="M 275.656316 331.653423 
L 285.639997 325.576884 
L 288.299885 327.935757 
z
" clip-path="url(#p8af8dca688)" style="fill: #185d8d"/>
    <path d="M 138.243846 161.238535 
L 164.567709 239.032651 
L 167.696846 251.423583 
z
" clip-path="url(#p8af8dca688)" style="fill: #0c2e46"/>
    <path d="M 285.639997 325.576884 
L 275.656316 331.653423 
L 262.997077 336.101851 
z
" clip-path="url(#p8af8dca688)" style="fill: #195f8f"/>
    <path d="M 313.488616 326.281655 
L 299.745346 332.185689 
L 311.49615 315.960742 
z
" clip-path="url(#p8af8dca688)" style="fill: #1b669a"/>
    <path d="M 285.639997 325.576884 
L 299.745346 332.185689 
L 288.299885 327.935757 
z
" clip-path="url(#p8af8dca688)" style="fill: #144c73"/>
    <path d="M 261.482795 347.140465 
L 285.639997 325.576884 
L 262.997077 336.101851 
z
" clip-path="url(#p8af8dca688)" style="fill: #1d70a9"/>
    <path d="M 313.488616 326.281655 
L 324.403122 310.920943 
L 337.217708 312.239559 
z
" clip-path="url(#p8af8dca688)" style="fill: #16537e"/>
    <path d="M 362.67897 314.380117 
L 337.770125 326.624049 
L 337.217708 312.239559 
z
" clip-path="url(#p8af8dca688)" style="fill: #16537e"/>
    <path d="M 324.403122 310.920943 
L 313.488616 326.281655 
L 311.49615 315.960742 
z
" clip-path="url(#p8af8dca688)" style="fill: #195e8f"/>
    <path d="M 299.745346 332.185689 
L 285.639997 325.576884 
L 311.49615 315.960742 
z
" clip-path="url(#p8af8dca688)" style="fill: #185c8c"/>
    <path d="M 349.945471 277.59373 
L 362.67897 314.380117 
L 337.217708 312.239559 
z
" clip-path="url(#p8af8dca688)" style="fill: #15517b"/>
    <path d="M 285.639997 325.576884 
L 310.592283 283.14434 
L 311.49615 315.960742 
z
" clip-path="url(#p8af8dca688)" style="fill: #175885"/>
    <path d="M 324.403122 310.920943 
L 336.82637 217.801099 
L 337.217708 312.239559 
z
" clip-path="url(#p8af8dca688)" style="fill: #15517a"/>
    <path d="M 336.82637 217.801099 
L 324.403122 310.920943 
L 311.49615 315.960742 
z
" clip-path="url(#p8af8dca688)" style="fill: #175783"/>
    <path d="M 336.82637 217.801099 
L 349.945471 277.59373 
L 337.217708 312.239559 
z
" clip-path="url(#p8af8dca688)" style="fill: #13476c"/>
    <path d="M 310.592283 283.14434 
L 336.82637 217.801099 
L 311.49615 315.960742 
z
" clip-path="url(#p8af8dca688)" style="fill: #196092"/>
   </g>
  </g>
  <g id="text_25">
   <!-- 2D p-Laplace Solution (L=3, p=1.0) -->
   <g transform="translate(181.199063 17.758125) scale(0.12 -0.12)">
    <defs>
     <path id="DejaVuSans-44" d="M 1259 4147 
L 1259 519 
L 2022 519 
Q 2988 519 3436 956 
Q 3884 1394 3884 2338 
Q 3884 3275 3436 3711 
Q 2988 4147 2022 4147 
L 1259 4147 
z
M 628 4666 
L 1925 4666 
Q 3281 4666 3915 4102 
Q 4550 3538 4550 2338 
Q 4550 1131 3912 565 
Q 3275 0 1925 0 
L 628 0 
L 628 4666 
z
" transform="scale(0.015625)"/>
     <path id="DejaVuSans-20" transform="scale(0.015625)"/>
     <path id="DejaVuSans-70" d="M 1159 525 
L 1159 -1331 
L 581 -1331 
L 581 3500 
L 1159 3500 
L 1159 2969 
Q 1341 3281 1617 3432 
Q 1894 3584 2278 3584 
Q 2916 3584 3314 3078 
Q 3713 2572 3713 1747 
Q 3713 922 3314 415 
Q 2916 -91 2278 -91 
Q 1894 -91 1617 61 
Q 1341 213 1159 525 
z
M 3116 1747 
Q 3116 2381 2855 2742 
Q 2594 3103 2138 3103 
Q 1681 3103 1420 2742 
Q 1159 2381 1159 1747 
Q 1159 1113 1420 752 
Q 1681 391 2138 391 
Q 2594 391 2855 752 
Q 3116 1113 3116 1747 
z
" transform="scale(0.015625)"/>
     <path id="DejaVuSans-2d" d="M 313 2009 
L 1997 2009 
L 1997 1497 
L 313 1497 
L 313 2009 
z
" transform="scale(0.015625)"/>
     <path id="DejaVuSans-4c" d="M 628 4666 
L 1259 4666 
L 1259 531 
L 3531 531 
L 3531 0 
L 628 0 
L 628 4666 
z
" transform="scale(0.015625)"/>
     <path id="DejaVuSans-61" d="M 2194 1759 
Q 1497 1759 1228 1600 
Q 959 1441 959 1056 
Q 959 750 1161 570 
Q 1363 391 1709 391 
Q 2188 391 2477 730 
Q 2766 1069 2766 1631 
L 2766 1759 
L 2194 1759 
z
M 3341 1997 
L 3341 0 
L 2766 0 
L 2766 531 
Q 2569 213 2275 61 
Q 1981 -91 1556 -91 
Q 1019 -91 701 211 
Q 384 513 384 1019 
Q 384 1609 779 1909 
Q 1175 2209 1959 2209 
L 2766 2209 
L 2766 2266 
Q 2766 2663 2505 2880 
Q 2244 3097 1772 3097 
Q 1472 3097 1187 3025 
Q 903 2953 641 2809 
L 641 3341 
Q 956 3463 1253 3523 
Q 1550 3584 1831 3584 
Q 2591 3584 2966 3190 
Q 3341 2797 3341 1997 
z
" transform="scale(0.015625)"/>
     <path id="DejaVuSans-6c" d="M 603 4863 
L 1178 4863 
L 1178 0 
L 603 0 
L 603 4863 
z
" transform="scale(0.015625)"/>
     <path id="DejaVuSans-63" d="M 3122 3366 
L 3122 2828 
Q 2878 2963 2633 3030 
Q 2388 3097 2138 3097 
Q 1578 3097 1268 2742 
Q 959 2388 959 1747 
Q 959 1106 1268 751 
Q 1578 397 2138 397 
Q 2388 397 2633 464 
Q 2878 531 3122 666 
L 3122 134 
Q 2881 22 2623 -34 
Q 2366 -91 2075 -91 
Q 1284 -91 818 406 
Q 353 903 353 1747 
Q 353 2603 823 3093 
Q 1294 3584 2113 3584 
Q 2378 3584 2631 3529 
Q 2884 3475 3122 3366 
z
" transform="scale(0.015625)"/>
     <path id="DejaVuSans-65" d="M 3597 1894 
L 3597 1613 
L 953 1613 
Q 991 1019 1311 708 
Q 1631 397 2203 397 
Q 2534 397 2845 478 
Q 3156 559 3463 722 
L 3463 178 
Q 3153 47 2828 -22 
Q 2503 -91 2169 -91 
Q 1331 -91 842 396 
Q 353 884 353 1716 
Q 353 2575 817 3079 
Q 1281 3584 2069 3584 
Q 2775 3584 3186 3129 
Q 3597 2675 3597 1894 
z
M 3022 2063 
Q 3016 2534 2758 2815 
Q 2500 3097 2075 3097 
Q 1594 3097 1305 2825 
Q 1016 2553 972 2059 
L 3022 2063 
z
" transform="scale(0.015625)"/>
     <path id="DejaVuSans-53" d="M 3425 4513 
L 3425 3897 
Q 3066 4069 2747 4153 
Q 2428 4238 2131 4238 
Q 1616 4238 1336 4038 
Q 1056 3838 1056 3469 
Q 1056 3159 1242 3001 
Q 1428 2844 1947 2747 
L 2328 2669 
Q 3034 2534 3370 2195 
Q 3706 1856 3706 1288 
Q 3706 609 3251 259 
Q 2797 -91 1919 -91 
Q 1588 -91 1214 -16 
Q 841 59 441 206 
L 441 856 
Q 825 641 1194 531 
Q 1563 422 1919 422 
Q 2459 422 2753 634 
Q 3047 847 3047 1241 
Q 3047 1584 2836 1778 
Q 2625 1972 2144 2069 
L 1759 2144 
Q 1053 2284 737 2584 
Q 422 2884 422 3419 
Q 422 4038 858 4394 
Q 1294 4750 2059 4750 
Q 2388 4750 2728 4690 
Q 3069 4631 3425 4513 
z
" transform="scale(0.015625)"/>
     <path id="DejaVuSans-6f" d="M 1959 3097 
Q 1497 3097 1228 2736 
Q 959 2375 959 1747 
Q 959 1119 1226 758 
Q 1494 397 1959 397 
Q 2419 397 2687 759 
Q 2956 1122 2956 1747 
Q 2956 2369 2687 2733 
Q 2419 3097 1959 3097 
z
M 1959 3584 
Q 2709 3584 3137 3096 
Q 3566 2609 3566 1747 
Q 3566 888 3137 398 
Q 2709 -91 1959 -91 
Q 1206 -91 779 398 
Q 353 888 353 1747 
Q 353 2609 779 3096 
Q 1206 3584 1959 3584 
z
" transform="scale(0.015625)"/>
     <path id="DejaVuSans-75" d="M 544 1381 
L 544 3500 
L 1119 3500 
L 1119 1403 
Q 1119 906 1312 657 
Q 1506 409 1894 409 
Q 2359 409 2629 706 
Q 2900 1003 2900 1516 
L 2900 3500 
L 3475 3500 
L 3475 0 
L 2900 0 
L 2900 538 
Q 2691 219 2414 64 
Q 2138 -91 1772 -91 
Q 1169 -91 856 284 
Q 544 659 544 1381 
z
M 1991 3584 
L 1991 3584 
z
" transform="scale(0.015625)"/>
     <path id="DejaVuSans-74" d="M 1172 4494 
L 1172 3500 
L 2356 3500 
L 2356 3053 
L 1172 3053 
L 1172 1153 
Q 1172 725 1289 603 
Q 1406 481 1766 481 
L 2356 481 
L 2356 0 
L 1766 0 
Q 1100 0 847 248 
Q 594 497 594 1153 
L 594 3053 
L 172 3053 
L 172 3500 
L 594 3500 
L 594 4494 
L 1172 4494 
z
" transform="scale(0.015625)"/>
     <path id="DejaVuSans-69" d="M 603 3500 
L 1178 3500 
L 1178 0 
L 603 0 
L 603 3500 
z
M 603 4863 
L 1178 4863 
L 1178 4134 
L 603 4134 
L 603 4863 
z
" transform="scale(0.015625)"/>
     <path id="DejaVuSans-6e" d="M 3513 2113 
L 3513 0 
L 2938 0 
L 2938 2094 
Q 2938 2591 2744 2837 
Q 2550 3084 2163 3084 
Q 1697 3084 1428 2787 
Q 1159 2491 1159 1978 
L 1159 0 
L 581 0 
L 581 3500 
L 1159 3500 
L 1159 2956 
Q 1366 3272 1645 3428 
Q 1925 3584 2291 3584 
Q 2894 3584 3203 3211 
Q 3513 2838 3513 2113 
z
" transform="scale(0.015625)"/>
     <path id="DejaVuSans-28" d="M 1984 4856 
Q 1566 4138 1362 3434 
Q 1159 2731 1159 2009 
Q 1159 1288 1364 580 
Q 1569 -128 1984 -844 
L 1484 -844 
Q 1016 -109 783 600 
Q 550 1309 550 2009 
Q 550 2706 781 3412 
Q 1013 4119 1484 4856 
L 1984 4856 
z
" transform="scale(0.015625)"/>
     <path id="DejaVuSans-3d" d="M 678 2906 
L 4684 2906 
L 4684 2381 
L 678 2381 
L 678 2906 
z
M 678 1631 
L 4684 1631 
L 4684 1100 
L 678 1100 
L 678 1631 
z
" transform="scale(0.015625)"/>
     <path id="DejaVuSans-33" d="M 2597 2516 
Q 3050 2419 3304 2112 
Q 3559 1806 3559 1356 
Q 3559 666 3084 287 
Q 2609 -91 1734 -91 
Q 1441 -91 1130 -33 
Q 819 25 488 141 
L 488 750 
Q 750 597 1062 519 
Q 1375 441 1716 441 
Q 2309 441 2620 675 
Q 2931 909 2931 1356 
Q 2931 1769 2642 2001 
Q 2353 2234 1838 2234 
L 1294 2234 
L 1294 2753 
L 1863 2753 
Q 2328 2753 2575 2939 
Q 2822 3125 2822 3475 
Q 2822 3834 2567 4026 
Q 2313 4219 1838 4219 
Q 1578 4219 1281 4162 
Q 984 4106 628 3988 
L 628 4550 
Q 988 4650 1302 4700 
Q 1616 4750 1894 4750 
Q 2613 4750 3031 4423 
Q 3450 4097 3450 3541 
Q 3450 3153 3228 2886 
Q 3006 2619 2597 2516 
z
" transform="scale(0.015625)"/>
     <path id="DejaVuSans-2c" d="M 750 794 
L 1409 794 
L 1409 256 
L 897 -744 
L 494 -744 
L 750 256 
L 750 794 
z
" transform="scale(0.015625)"/>
     <path id="DejaVuSans-29" d="M 513 4856 
L 1013 4856 
Q 1481 4119 1714 3412 
Q 1947 2706 1947 2009 
Q 1947 1309 1714 600 
Q 1481 -109 1013 -844 
L 513 -844 
Q 928 -128 1133 580 
Q 1338 1288 1338 2009 
Q 1338 2731 1133 3434 
Q 928 4138 513 4856 
z
" transform="scale(0.015625)"/>
    </defs>
    <use xlink:href="#DejaVuSans-32"/>
    <use xlink:href="#DejaVuSans-44" transform="translate(63.623047 0)"/>
    <use xlink:href="#DejaVuSans-20" transform="translate(140.625 0)"/>
    <use xlink:href="#DejaVuSans-70" transform="translate(172.412109 0)"/>
    <use xlink:href="#DejaVuSans-2d" transform="translate(235.888672 0)"/>
    <use xlink:href="#DejaVuSans-4c" transform="translate(271.972656 0)"/>
    <use xlink:href="#DejaVuSans-61" transform="translate(327.685547 0)"/>
    <use xlink:href="#DejaVuSans-70" transform="translate(388.964844 0)"/>
    <use xlink:href="#DejaVuSans-6c" transform="translate(452.441406 0)"/>
    <use xlink:href="#DejaVuSans-61" transform="translate(480.224609 0)"/>
    <use xlink:href="#DejaVuSans-63" transform="translate(541.503906 0)"/>
    <use xlink:href="#DejaVuSans-65" transform="translate(596.484375 0)"/>
    <use xlink:href="#DejaVuSans-20" transform="translate(658.007812 0)"/>
    <use xlink:href="#DejaVuSans-53" transform="translate(689.794922 0)"/>
    <use xlink:href="#DejaVuSans-6f" transform="translate(753.271484 0)"/>
    <use xlink:href="#DejaVuSans-6c" transform="translate(814.453125 0)"/>
    <use xlink:href="#DejaVuSans-75" transform="translate(842.236328 0)"/>
    <use xlink:href="#DejaVuSans-74" transform="translate(905.615234 0)"/>
    <use xlink:href="#DejaVuSans-69" transform="translate(944.824219 0)"/>
    <use xlink:href="#DejaVuSans-6f" transform="translate(972.607422 0)"/>
    <use xlink:href="#DejaVuSans-6e" transform="translate(1033.789062 0)"/>
    <use xlink:href="#DejaVuSans-20" transform="translate(1097.167969 0)"/>
    <use xlink:href="#DejaVuSans-28" transform="translate(1128.955078 0)"/>
    <use xlink:href="#DejaVuSans-4c" transform="translate(1167.96875 0)"/>
    <use xlink:href="#DejaVuSans-3d" transform="translate(1223.681641 0)"/>
    <use xlink:href="#DejaVuSans-33" transform="translate(1307.470703 0)"/>
    <use xlink:href="#DejaVuSans-2c" transform="translate(1371.09375 0)"/>
    <use xlink:href="#DejaVuSans-20" transform="translate(1402.880859 0)"/>
    <use xlink:href="#DejaVuSans-70" transform="translate(1434.667969 0)"/>
    <use xlink:href="#DejaVuSans-3d" transform="translate(1498.144531 0)"/>
    <use xlink:href="#DejaVuSans-31" transform="translate(1581.933594 0)"/>
    <use xlink:href="#DejaVuSans-2e" transform="translate(1645.556641 0)"/>
    <use xlink:href="#DejaVuSans-30" transform="translate(1677.34375 0)"/>
    <use xlink:href="#DejaVuSans-29" transform="translate(1740.966797 0)"/>
   </g>
  </g>
 </g>
 <defs>
  <clipPath id="p8af8dca688">
   <rect x="93.6" y="32.4" width="388.8" height="388.8"/>
  </clipPath>
 </defs>
</svg>
